<svg xmlns="http://www.w3.org/2000/svg" width="60" height="60" viewBox="0 0 60 60">
  <g id="Group_10963" data-name="Group 10963" transform="translate(-1040 -548)">
    <circle id="Ellipse_9" data-name="Ellipse 9" cx="30" cy="30" r="30" transform="translate(1040 548)" fill="#2a2f4d"/>
    <g id="secure-payment" transform="translate(1058.599 564.2)">
      <path id="Path_1492" data-name="Path 1492" d="M135.847,131.58a.963.963,0,0,0-.677-.278.95.95,0,0,0-.677.278l-3.351,3.351-1.157-1.157a.957.957,0,0,0-1.353,1.355l1.834,1.834a.95.95,0,0,0,.676.277h0a.952.952,0,0,0,.677-.278l4.028-4.028A.958.958,0,0,0,135.847,131.58Z" transform="translate(-121.01 -121.247)" fill="#ffd401"/>
      <path id="Path_1493" data-name="Path 1493" d="M54.9,5.651a.5.5,0,0,0-.278-.4L43.938.05a.5.5,0,0,0-.436,0l-10.68,5.2a.5.5,0,0,0-.278.4A27.5,27.5,0,0,0,33.4,14.1a22.65,22.65,0,0,0,3.181,7.162,18.737,18.737,0,0,0,6.906,6.1.5.5,0,0,0,.458,0,18.738,18.738,0,0,0,6.906-6.1A22.649,22.649,0,0,0,54.036,14.1,27.5,27.5,0,0,0,54.9,5.651ZM43.72,19.275a6.331,6.331,0,1,1,6.331-6.331A6.339,6.339,0,0,1,43.72,19.275Z" transform="translate(-32.499 0.001)" fill="#ffd401"/>
    </g>
  </g>
</svg>
