<svg xmlns="http://www.w3.org/2000/svg" width="24" height="28.8" viewBox="0 0 24 28.8">
  <g id="bell" transform="translate(-2)">
    <path id="Path_486" data-name="Path 486" d="M25.255,20.972A8.421,8.421,0,0,1,22.4,14.617V11.16a8.6,8.6,0,0,0-7.2-8.581V1.24a1.2,1.2,0,1,0-2.4,0V2.579A8.6,8.6,0,0,0,5.6,11.16v3.457a8.43,8.43,0,0,1-2.866,6.365A2.2,2.2,0,0,0,2,22.63,2.138,2.138,0,0,0,4.1,24.8H23.9A2.138,2.138,0,0,0,26,22.63,2.206,2.206,0,0,0,25.255,20.972Z" fill="#f14080"/>
    <path id="Path_487" data-name="Path 487" d="M12,24a3.756,3.756,0,0,0,3.674-3H8.326A3.756,3.756,0,0,0,12,24Z" transform="translate(2 4.8)" fill="#f14080"/>
  </g>
</svg>
