<svg xmlns="http://www.w3.org/2000/svg" width="36" height="20.828" viewBox="0 0 36 20.828"><defs><style>.a{fill:#2a2f4d;}</style></defs><g transform="translate(0 -102.75)"><g transform="translate(0 102.75)"><path class="a" d="M336.118,229.65a3.42,3.42,0,0,0-3.418,3.418.82.82,0,0,0,1.639,0,1.793,1.793,0,0,1,1.787-1.787.816.816,0,1,0-.007-1.632Z" transform="translate(-308.136 -220.281)"/><path class="a" d="M33.556,109.764c-.2-.192-.413-.377-.635-.554h0l-3.027-2.569a7.942,7.942,0,0,0-4.061-1.454l.162.162L24.157,103.5h-.015a2.879,2.879,0,0,0-4.681,1.24,2.634,2.634,0,0,0-1.263-.406c-.074-.007-.155-.007-.229-.007a2.681,2.681,0,0,0-1.425.413,2.881,2.881,0,0,0-4.681-1.233H11.85l-1.838,1.846.162-.162a7.985,7.985,0,0,0-4.061,1.454l-3.027,2.569h0a6.433,6.433,0,0,0-.635.554A8.03,8.03,0,1,0,16,116.534a4.031,4.031,0,0,0,4,0,8.03,8.03,0,0,0,16-1A7.962,7.962,0,0,0,33.556,109.764ZM8.033,121.023a5.478,5.478,0,1,1,5.478-5.478A5.476,5.476,0,0,1,8.033,121.023Zm9.975-6.231a1.779,1.779,0,1,1,1.779-1.779A1.78,1.78,0,0,1,18.007,114.792Zm9.975,6.231a5.478,5.478,0,1,1,5.478-5.478A5.476,5.476,0,0,1,27.982,121.023Z" transform="translate(0 -102.75)"/><path class="a" d="M65.918,229.65a3.42,3.42,0,0,0-3.418,3.418.82.82,0,0,0,1.639,0,1.793,1.793,0,0,1,1.787-1.787.816.816,0,1,0-.007-1.632Z" transform="translate(-57.886 -220.281)"/></g></g></svg>