<svg xmlns="http://www.w3.org/2000/svg" width="6.664" height="12.372" viewBox="0 0 6.664 12.372"><defs><style>.a{fill:#fff;}</style></defs><path class="a" d="M6.578,3.256a.279.279,0,0,1,.052.327l-4.015,8.6a.327.327,0,0,1-.312.186.628.628,0,0,1-.1-.015.317.317,0,0,1-.19-.141.281.281,0,0,1-.033-.223L3.44,5.984.422,6.735a.392.392,0,0,1-.089.008A.346.346,0,0,1,.1,6.661a.278.278,0,0,1-.1-.29L1.5.237A.32.32,0,0,1,1.619.066.337.337,0,0,1,1.827,0H4.266A.33.33,0,0,1,4.5.092a.3.3,0,0,1,.1.22.3.3,0,0,1-.037.134L3.292,3.888l2.944-.729a.409.409,0,0,1,.089-.015.349.349,0,0,1,.253.112Z" transform="translate(0.002 0.001)"/></svg>