<svg xmlns="http://www.w3.org/2000/svg" width="23.387" height="16.081" viewBox="0 0 23.387 16.081"><g transform="translate(4.392 0)"><path d="M112.253,80H97.641a1.461,1.461,0,0,0,0,2.922h14.612a1.461,1.461,0,1,0,0-2.922Z" transform="translate(-96.18 -80)" fill="#fff"/></g><g transform="translate(0 0.006)"><g transform="translate(0 0)"><path d="M2.931,81.59a1.461,1.461,0,0,0-2.922,0,1.244,1.244,0,0,0,0,.285,1.317,1.317,0,0,0,.08.278,1.7,1.7,0,0,0,.139.248,1.337,1.337,0,0,0,.183.226A1.293,1.293,0,0,0,.63,82.8a1.19,1.19,0,0,0,.248.139,1.206,1.206,0,0,0,.307.11,1.281,1.281,0,0,0,.285,0,1.461,1.461,0,0,0,1.03-.424,1.337,1.337,0,0,0,.183-.226,1.7,1.7,0,0,0,.139-.248,1.357,1.357,0,0,0,.11-.278A1.244,1.244,0,0,0,2.931,81.59Z" transform="translate(-0.001 -80.135)" fill="#fff"/></g></g><g transform="translate(0.008 6.581)"><g transform="translate(0 0)"><path d="M3.1,225.59a1.249,1.249,0,0,0,0-.285,1.184,1.184,0,0,0-.11-.27,1.461,1.461,0,0,0-.139-.256,1.053,1.053,0,0,0-.183-.219A1.461,1.461,0,0,0,.18,225.59a1.457,1.457,0,0,0,.241.811,1.4,1.4,0,0,0,.19.219,1.067,1.067,0,0,0,.219.183,1.185,1.185,0,0,0,.248.139,1.242,1.242,0,0,0,.278.08,1.213,1.213,0,0,0,.285.029,1.244,1.244,0,0,0,.285,0,1.185,1.185,0,0,0,.27-.08,1.22,1.22,0,0,0,.256-.139,1.066,1.066,0,0,0,.219-.183,1.067,1.067,0,0,0,.183-.219,1.175,1.175,0,0,0,.139-.248,1.236,1.236,0,0,0,.11-.307A1.209,1.209,0,0,0,3.1,225.59Z" transform="translate(-0.18 -224.135)" fill="#fff"/></g></g><g transform="translate(0.008 13.157)"><g transform="translate(0 0)"><path d="M3.1,369.59a1.254,1.254,0,0,0,0-.285,1.244,1.244,0,0,0-.11-.278,1.7,1.7,0,0,0-.139-.248,1.067,1.067,0,0,0-.183-.219,1.461,1.461,0,0,0-2.06,0,1.067,1.067,0,0,0-.183.219,1.7,1.7,0,0,0-.139.248,1.2,1.2,0,0,0-.08.278,1.256,1.256,0,0,0-.029.285,1.461,1.461,0,0,0,.431,1.03,1.065,1.065,0,0,0,.219.183,1.185,1.185,0,0,0,.248.139,1.242,1.242,0,0,0,.278.08,1.21,1.21,0,0,0,.285.029,1.243,1.243,0,0,0,.285,0,1.187,1.187,0,0,0,.27-.08,1.221,1.221,0,0,0,.256-.139,1.066,1.066,0,0,0,.219-.183,1.067,1.067,0,0,0,.183-.219,1.169,1.169,0,0,0,.139-.248,1.24,1.24,0,0,0,.11-.307A1.209,1.209,0,0,0,3.1,369.59Z" transform="translate(-0.178 -368.135)" fill="#fff"/></g></g><g transform="translate(4.392 6.575)"><g transform="translate(0 0)"><path d="M113.714,224H97.641a1.461,1.461,0,0,0,0,2.922h16.073a1.461,1.461,0,0,0,0-2.922Z" transform="translate(-96.18 -224)" fill="#fff"/></g></g><g transform="translate(4.392 13.151)"><g transform="translate(0 0)"><path d="M107.139,368h-9.5a1.461,1.461,0,1,0,0,2.922h9.5a1.461,1.461,0,1,0,0-2.922Z" transform="translate(-96.18 -368)" fill="#fff"/></g></g></svg>