<svg xmlns="http://www.w3.org/2000/svg" width="14.857" height="16" viewBox="0 0 14.857 16">
  <path id="calendar" d="M1.143,14.858H3.714V12.286H1.143Zm3.143,0H7.143V12.286H4.286v2.572ZM1.143,11.715H3.714V8.858H1.143Zm3.143,0H7.143V8.858H4.286v2.857ZM1.143,8.286H3.714V5.714H1.143Zm6.572,6.572h2.857V12.286H7.714ZM4.286,8.286H7.143V5.714H4.286Zm6.858,6.572h2.572V12.286H11.143ZM7.715,11.715h2.857V8.858H7.714v2.857ZM4.572,4V1.428a.29.29,0,0,0-.286-.286H3.714a.29.29,0,0,0-.286.286V4a.29.29,0,0,0,.286.286h.572A.29.29,0,0,0,4.572,4Zm6.572,7.714h2.572V8.858H11.143v2.857ZM7.714,8.286h2.857V5.714H7.714Zm3.429,0h2.572V5.714H11.143ZM11.429,4V1.428a.29.29,0,0,0-.286-.286h-.572a.289.289,0,0,0-.285.286V4a.29.29,0,0,0,.286.286h.572A.29.29,0,0,0,11.429,4Zm3.429-.572V14.857A1.158,1.158,0,0,1,13.715,16H1.143a1.1,1.1,0,0,1-.8-.339,1.1,1.1,0,0,1-.339-.8V3.429a1.1,1.1,0,0,1,.339-.8,1.1,1.1,0,0,1,.8-.339H2.285V1.428A1.376,1.376,0,0,1,2.7.42,1.376,1.376,0,0,1,3.714,0h.572A1.376,1.376,0,0,1,5.295.42a1.376,1.376,0,0,1,.42,1.009v.857H9.143V1.428A1.376,1.376,0,0,1,9.562.42,1.376,1.376,0,0,1,10.571,0h.572a1.376,1.376,0,0,1,1.009.42,1.376,1.376,0,0,1,.42,1.009v.857h1.143a1.1,1.1,0,0,1,.8.339,1.1,1.1,0,0,1,.339.8Z" fill="#2a2f4d"/>
</svg>
