<svg id="call-center-worker-with-headset" xmlns="http://www.w3.org/2000/svg" width="48" height="47.123" viewBox="0 0 48 47.123">
  <path id="Path_1483" data-name="Path 1483" d="M20.23,31.508a2.465,2.465,0,1,1-2.465-2.465A2.465,2.465,0,0,1,20.23,31.508Zm10-2.464A2.465,2.465,0,1,0,32.7,31.508,2.465,2.465,0,0,0,30.234,29.044ZM48,30.135v4.684a4.258,4.258,0,0,1-4.258,4.258h-3.09C37.591,47.577,29.773,52.711,24,52.711S10.409,47.577,7.348,39.076H4.258A4.258,4.258,0,0,1,0,34.818V30.135a4.257,4.257,0,0,1,2.232-3.746C2.277,19.739,4.215,14.545,8,10.955c3.755-3.561,9.138-5.367,16-5.367s12.244,1.806,16,5.367c3.786,3.59,5.724,8.784,5.769,15.434A4.257,4.257,0,0,1,48,30.135Zm-9.012,1.389c0-1.1-.056-2.125-.139-3.123-1.89-1.729-5.32-3.041-9.65-3.528a6.278,6.278,0,0,1,1.357,2.587c-2.652-2.089-7.857-1.592-11.795-6.267-.226-.261-.421-.511-.59-.739l-.006-.008h0c-.7-.947-.939-1.511-.953-.887-.116,5.374-3.924,9.563-8.154,10.154-.027.591-.049,1.188-.049,1.81a19.279,19.279,0,0,0,1,6.207c2.376,2.866,6.3,3.675,9.771,3.889a4.44,4.44,0,0,1,3.775-1.742c2.284,0,4.135,1.314,4.135,2.935s-1.851,2.935-4.135,2.935a4.346,4.346,0,0,1-3.853-1.875A20.359,20.359,0,0,1,12.235,42.2c3.344,4.929,8.528,7.535,11.765,7.535C29.087,49.731,38.988,43.3,38.988,31.524ZM43.2,25.877C42.933,14.273,36.31,8.143,24,8.143S5.067,14.273,4.8,25.877H6.434a20.447,20.447,0,0,1,3.787-9.6c3.063-3.941,7.7-5.939,13.779-5.939s10.716,2,13.779,5.939a20.448,20.448,0,0,1,3.787,9.6H43.2Z" transform="translate(0 -5.588)" fill="#2a2f4d"/>
</svg>
