<svg xmlns="http://www.w3.org/2000/svg" width="28" height="28" viewBox="0 0 28 28">
  <g id="Group_11379" data-name="Group 11379" transform="translate(-10 -1038)">
    <g id="arrow-right-circle-fill" transform="translate(10 1038)">
      <path id="Path_1550" data-name="Path 1550" d="M28,14A14,14,0,1,1,14,0,14,14,0,0,1,28,14ZM13.381,18.631A.876.876,0,1,0,14.62,19.87l5.25-5.25a.875.875,0,0,0,0-1.239l-5.25-5.25A.876.876,0,1,0,13.381,9.37l3.757,3.755H8.75a.875.875,0,1,0,0,1.75h8.388L13.38,18.631Z" fill="#7b7f95" fill-rule="evenodd"/>
    </g>
  </g>
</svg>
