<svg xmlns="http://www.w3.org/2000/svg" width="60" height="60" viewBox="0 0 60 60">
  <g id="Group_10964" data-name="Group 10964" transform="translate(-1040 -708)">
    <circle id="Ellipse_10" data-name="Ellipse 10" cx="30" cy="30" r="30" transform="translate(1040 708)" fill="#2a2f4d"/>
    <g id="call-center-worker-with-headset" transform="translate(1055.599 723.6)">
      <path id="Path_1494" data-name="Path 1494" d="M12.2,21.221a1.486,1.486,0,1,1-1.486-1.486A1.486,1.486,0,0,1,12.2,21.221Zm6.034-1.486a1.486,1.486,0,1,0,1.486,1.486A1.486,1.486,0,0,0,18.235,19.735Zm10.715.658v2.825a2.568,2.568,0,0,1-2.568,2.568H24.519c-1.847,5.127-6.562,8.224-10.044,8.224s-8.2-3.1-10.044-8.224H2.568A2.568,2.568,0,0,1,0,23.218V20.393a2.567,2.567,0,0,1,1.346-2.259c.027-4.011,1.2-7.143,3.479-9.309,2.265-2.148,5.512-3.237,9.65-3.237s7.384,1.089,9.65,3.237c2.283,2.165,3.452,5.3,3.479,9.309A2.568,2.568,0,0,1,28.95,20.393Zm-5.435.838c0-.661-.034-1.282-.084-1.883a10.63,10.63,0,0,0-5.82-2.128,3.787,3.787,0,0,1,.819,1.56c-1.6-1.26-4.739-.96-7.114-3.78-.136-.157-.254-.308-.356-.445l0,0h0c-.422-.571-.567-.911-.575-.535a6.18,6.18,0,0,1-4.918,6.124c-.016.356-.029.716-.029,1.092a11.627,11.627,0,0,0,.6,3.744c1.433,1.728,3.8,2.216,5.893,2.346a2.678,2.678,0,0,1,2.277-1.05c1.377,0,2.494.793,2.494,1.77s-1.117,1.77-2.494,1.77a2.621,2.621,0,0,1-2.324-1.131,12.28,12.28,0,0,1-4.507-1.012c2.017,2.973,5.143,4.545,7.1,4.545C17.543,32.212,23.515,28.336,23.515,21.231Zm2.543-3.406c-.163-7-4.158-10.7-11.583-10.7s-11.419,3.7-11.583,10.7H3.88a12.332,12.332,0,0,1,2.284-5.791c1.847-2.377,4.643-3.582,8.311-3.582s6.463,1.205,8.311,3.582a12.333,12.333,0,0,1,2.284,5.791Z" transform="translate(0 -5.588)" fill="#ffd401"/>
    </g>
  </g>
</svg>
