<svg xmlns="http://www.w3.org/2000/svg" width="20" height="20" viewBox="0 0 20 20"><defs><style>.a{fill:#a9acbe;}</style></defs><g transform="translate(-2.25 -2.25)"><path class="a" d="M23.286,10.429V23.286H10.429V10.429H23.286m0-1.429H10.429A1.429,1.429,0,0,0,9,10.429V23.286a1.429,1.429,0,0,0,1.429,1.429H23.286a1.429,1.429,0,0,0,1.429-1.429V10.429A1.429,1.429,0,0,0,23.286,9Z" transform="translate(-2.464 -2.464)"/><path class="a" d="M3.679,13.679H2.25v-10A1.429,1.429,0,0,1,3.679,2.25h10V3.679h-10Z" transform="translate(0 0)"/></g></svg>