<svg xmlns="http://www.w3.org/2000/svg" xmlns:xlink="http://www.w3.org/1999/xlink" width="918" height="271.539" viewBox="0 0 918 271.539"><defs><style>.a{fill:#ffd401;}.b{fill:#006673;}.c{fill:#00a2ba;}.d{fill:#008591;}.e{fill:#e2e2e8;}.f{fill:#145e85;}.g{fill:#104765;}.h{fill:url(#c);}.i{fill:#c4e7fb;}.j{clip-path:url(#d);}.k{fill:#c4c5c5;}.l{fill:#e7e7e7;}.m{fill:#cacaca;}.n{fill:#4c010a;}.o{fill:#750f08;}.p{fill:#001322;}.q{fill:#e0e0e0;}.aa,.r{fill:#fff;}.s{fill:#01040d;}.t{fill:#004363;}.u{fill:#00ace9;}.v{clip-path:url(#e);}.w{fill:#b1b2b2;}.x{fill:url(#g);}.y{fill:url(#i);}.z{fill:#8b8c8c;}.aa{opacity:0.17;}.ab{fill:#bbbaba;}.ac{fill:#deb196;}.ad{fill:#e8c0a8;}.ae{fill:#3d150c;}.af{fill:#fbcc32;}.ag{fill:#3d3f44;}.ah{fill:#303135;}.ai{fill:#cf9f82;}.aj{fill:#ffdf31;}.ak{fill:#a56052;}.al{fill:#54150c;}.am{fill:url(#k);}.an,.as,.cb{fill:none;stroke-miterlimit:10;}.an,.cb{stroke:#4b2b19;}.an{stroke-width:0.911px;}.ao{fill:url(#l);}.ap{fill:#931542;}.aq{fill:#f9c285;}.ar{fill:#9cd8f7;}.as{stroke:#008591;stroke-width:1.067px;}.at{fill:url(#m);}.au{fill:#d7ecec;}.av{fill:#c55f02;}.aw{fill:#c39e50;}.ax{fill:#80a92a;}.ay{fill:#d79f80;}.az{fill:#f7a600;}.ba,.bc{opacity:0.59;}.ba{fill:url(#n);}.bb{fill:#bf6600;}.bc{fill:url(#o);}.bd{fill:#ae2e34;}.be{fill:#4b2b19;}.bf{fill:#edc650;}.bg{fill:#fbca8e;}.bh{fill:#fac37d;}.bi{fill:#85532d;}.bj{fill:#b70443;}.bk{fill:#5d041c;}.bl{fill:#d7004f;}.bm{fill:#f0ae66;}.bn{fill:#eda159;}.bo{fill:#a36538;}.bp{fill:url(#p);}.bq{fill:#643619;}.br{fill:#994d1d;}.bs{fill:#009ef0;}.bt{fill:#00244c;}.bu{fill:#004792;}.bv{fill:#00a2ee;}.bw{fill:#007ac3;}.bx{fill:#00d2ff;}.by{fill:#eeab67;}.bz{fill:#b06523;}.ca{fill:url(#q);}.cb{stroke-width:0.523px;}.cc{fill:url(#r);}.cd{fill:#00a6ff;}.ce,.cg{fill:#2a2f4d;}.ce{font-size:25px;font-family:OpenSans-Semibold, Open Sans;font-weight:600;}.cf{fill:#ff0175;}.cg{font-size:16px;font-family:OpenSans, Open Sans;}.ch{fill:#4867aa;}.ci{fill:#50abf1;}.cj{fill:#0077b5;}.ck{fill:#c61d26;}.cl{fill:#19bf39;}.cm{filter:url(#a);}</style><filter id="a" x="0" y="0" width="918" height="271.539" filterUnits="userSpaceOnUse"><feOffset input="SourceAlpha"/><feGaussianBlur stdDeviation="3" result="b"/><feFlood flood-opacity="0.161"/><feComposite operator="in" in2="b"/><feComposite in="SourceGraphic"/></filter><linearGradient id="c" x1="0.261" y1="0.655" x2="1.111" y2="0.171" gradientUnits="objectBoundingBox"><stop offset="0" stop-color="#3abff0"/><stop offset="1" stop-color="#3ae9ff"/></linearGradient><clipPath id="d"><path d="M458.472,61.554l57.1-5.654c3.918,0,7.053,3.638,7.053,8.117V189.627c-4.422-.28-67.34-4.142-71.2-4.422V163.6s-10.468,4.814-10.188-10.132c.224-11.587-1.12-20.935-2.519-24.965-10.412-1.287-17.521,10.02-21.663,7.053-11.587-8.34-3.414-38.568,1.511-43.885,7.949-8.508,10.244,6.773,18.808,11.7,8.564,4.982,14.05,4.366,14.05,4.366V69A7.259,7.259,0,0,1,458.472,61.554Z" transform="translate(-411.137 -55.9)"/></clipPath><clipPath id="e"><path d="M427.932,144.766c-1.232,9.8-3.862,15.953-5.318,17.3-3.694.672-4.646-8.564-3.415-18.36s4.03-17.745,7.893-17.129C428.044,128.365,429.163,134.97,427.932,144.766Z" transform="translate(-418.691 -126.54)"/></clipPath><linearGradient id="g" x1="-2684.277" y1="162.762" x2="-2683.799" y2="163.316" gradientUnits="objectBoundingBox"><stop offset="0" stop-color="#fff"/><stop offset="1" stop-color="#ededed"/></linearGradient><linearGradient id="i" x1="-3326.439" y1="186.281" x2="-3327.33" y2="186.425" gradientUnits="objectBoundingBox"><stop offset="0" stop-color="#c7c8c8"/><stop offset="1" stop-color="#b5b6b6"/></linearGradient><linearGradient id="k" x1="-33.475" y1="89.025" x2="-33.777" y2="89.732" gradientUnits="objectBoundingBox"><stop offset="0" stop-color="#c9926a"/><stop offset="1" stop-color="#c9926a" stop-opacity="0"/></linearGradient><linearGradient id="l" x1="-42.271" y1="94.978" x2="-42.128" y2="95.757" xlink:href="#k"/><linearGradient id="m" x1="0.93" y1="0.471" x2="0.023" y2="0.516" gradientUnits="objectBoundingBox"><stop offset="0" stop-color="#c8f0ff" stop-opacity="0.302"/><stop offset="0.34" stop-color="#c8f0ff"/><stop offset="1" stop-color="#c8f0ff" stop-opacity="0"/></linearGradient><linearGradient id="n" x1="-88.316" y1="360.113" x2="-88.661" y2="360.906" xlink:href="#k"/><linearGradient id="o" x1="-116.065" y1="340.883" x2="-115.869" y2="341.8" xlink:href="#k"/><linearGradient id="p" x1="58.203" y1="434.809" x2="58.431" y2="435.62" gradientUnits="objectBoundingBox"><stop offset="0" stop-color="#da9c68"/><stop offset="1" stop-color="#da9c68" stop-opacity="0"/></linearGradient><linearGradient id="q" x1="-2288.399" y1="-412.805" x2="-2288.7" y2="-412.086" gradientUnits="objectBoundingBox"><stop offset="0" stop-color="#c97a51"/><stop offset="1" stop-color="#c97a51" stop-opacity="0"/></linearGradient><linearGradient id="r" x1="-2900.375" y1="-229.189" x2="-2900.23" y2="-228.361" xlink:href="#q"/></defs><g transform="translate(-835 -488.461)"><g class="cm" transform="matrix(1, 0, 0, 1, 835, 488.46)"><path class="a" d="M13.975,0h872.05C893.743,0,900,9.786,900,21.857V231.682c0,12.071-6.257,21.857-13.975,21.857H13.975C6.257,253.539,0,243.754,0,231.682V21.857C0,9.786,6.257,0,13.975,0Z" transform="translate(9 9)"/></g><g transform="translate(1326.625 532.567)"><g transform="translate(0 9.7)"><g transform="translate(320.947 68.011)"><path class="b" d="M574.167,226.865h0a58.506,58.506,0,0,0,7.669-.056c2.239-.168,4.478-.392,6.773-.56-.056-.448-.28-1.455-.28-1.9a10.478,10.478,0,0,1,.616-4.59c1.4-2.967,2.855-4.814,2.911-4.478.112.616-.224,5.989-1.231,7.893a27.824,27.824,0,0,1-1.735,3.023c.56-.056,1.12-.112,1.623-.112.84-.056,1.679-.112,2.463-.168a19.829,19.829,0,0,1-.448-2.519,14.715,14.715,0,0,1,1.511-6.045c2.015-3.918,7.221-7.781,7.725-7.557.056,0,.056.056.056.112-.056.448-1.343,1.9-2.183,3.862-.168.448-1.623,5.654-1.623,5.71-.168.616-.616,2.127-.672,2.239h0a17.28,17.28,0,0,1-1.511,2.239l-.056.056-.112.112a16.842,16.842,0,0,1-2.127,1.847c1.679-.112,3.414-.168,5.094-.168a18.028,18.028,0,0,1-.056-2.519,15.462,15.462,0,0,1,1.959-5.542c2.127-3.471,6.773-6.773,7.165-6.549.112.056-.112.392-.56.952a33.481,33.481,0,0,0-1.959,3.3v.056c-.056.168-1.008,2.575-1.12,2.911a.2.2,0,0,1-.056.112c-.392,1.008-1.287,3.359-1.343,3.415l-.112.224a9.022,9.022,0,0,1-1.4,1.791l-.056.056-.112.112a14.587,14.587,0,0,1-2.127,1.679h4.31a13.464,13.464,0,0,1,.392-2.071,15.732,15.732,0,0,1,2.351-4.534c2.127-2.743,5.989-5.094,6.213-4.814h0v.056c0,.056-.056.112-.168.224a.773.773,0,0,0-.168.224c-.112.168-3.191,4.59-3.247,4.758-.056.112-.56,1.064-.728,1.343-.056.056-.056.168-.112.224,0,.056-.056.056-.056.112a27.625,27.625,0,0,1-2.407,3.3l-.056.056c-.056,0-.056.056-.112.056a11.091,11.091,0,0,1-1.623,1.064c1.231,0,2.463.056,3.694.056.112-.28.5-1.4.728-1.847a14.85,14.85,0,0,1,2.8-3.583c2.295-2.071,6.045-3.527,6.213-3.3.112.168-4.142,4.2-4.2,4.31-.056.056-.616.784-.84,1.064l-.056.056c-.28.392-.616.728-.9,1.064-.056.056-.168.224-.224.28h0l-.112.112a13.853,13.853,0,0,1-1.4,1.008H609.1c-.056,0-.056.056-.112.056a8.813,8.813,0,0,1-1.679.728,5.429,5.429,0,0,1,.952.056l3.415.168c.112-.224.672-1.287.9-1.623a16.24,16.24,0,0,1,3.3-3.191c2.631-1.791,6.717-2.967,6.829-2.743.056.056-.448.392-.5.392,0,0-3.191,2.351-4.03,3.135l-.168.168c-.728.672-1.455,1.4-2.183,2.015l-.112.112c-.056.056-.112.056-.112.112h0a16.092,16.092,0,0,1-1.679.952h-.056c-.056,0-.056,0-.112.056a8.917,8.917,0,0,1-1.9.616c.28,0,.56.056.84.056,1.064.056,2.127.168,3.191.28.224-.28.9-1.064,1.175-1.4a19.49,19.49,0,0,1,3.638-2.519c2.743-1.4,6.549-1.959,6.605-1.735,0,.056-.168.168-.448.28-.392.168-.952.392-1.623.728-.224.112-2.8,1.791-3.079,1.959-.728.5-2.519,1.679-2.519,1.679a.564.564,0,0,0-.168.056,9.092,9.092,0,0,1-1.567.616h-.168c-.672.168-1.231.28-1.623.336.224.056.448.056.672.112h0c.28-.056,2.463-.112,2.463-.112h.28c.168,0,1.847.336,1.847.336.056,0,1.231.5,1.679.672.28.112,6.213,2.351,6.829,2.519a5.018,5.018,0,0,1,1.232.28.055.055,0,0,1,.056.056h0c-.168.28-4.59.672-7.893-.224a18.194,18.194,0,0,1-4.7-2.127c-.392-.28-1.175-.952-1.567-1.288a.2.2,0,0,1-.112.056c-.392,0-.728-.056-1.064-.056a1.552,1.552,0,0,1-.5-.056,9.742,9.742,0,0,1,1.288.672h0c.056,0,.056.056.112.056h.056a5.419,5.419,0,0,1,.5.392s1.567,1.959,1.735,2.127c.112.168,1.343,1.847,1.343,1.847.112.112.336.448.392.5.392.448.84.84,1.176,1.176a3.962,3.962,0,0,1,.672.616v.056h0a12.4,12.4,0,0,1-4.926-3.023,11.161,11.161,0,0,1-2.127-3.079c-.168-.336-.392-1.176-.5-1.455l-2.855-.168a15.484,15.484,0,0,1,1.343.84l.056.056h.056c.056,0,.056.056.112.056h0a6.1,6.1,0,0,1,1.007,1.064h0l.112.112h0c0,.056.056.056.056.112h0a.2.2,0,0,0,.056.112c.168.28.28.56.448.84.224.448.5.9.728,1.343.056.056.056.112.112.168.224.392,2.687,3.918,2.743,4.03,0,0,.224.224.224.28a.206.206,0,0,1,.056.168c-.224.168-3.526-1.735-5.262-3.974a11.345,11.345,0,0,1-1.9-3.694c-.112-.392-.224-1.287-.28-1.679-1.008-.056-2.015-.112-3.079-.168a13.336,13.336,0,0,1,1.4,1.12l.056.056.056.056a12.914,12.914,0,0,1,1.287,1.791,5.465,5.465,0,0,1,.28.616c.056.112.5,1.12.56,1.232,0,.056.448,1.119.5,1.231,0,.056,0,.056.056.112,0,.056.336.784.336.84a3.865,3.865,0,0,1,.224.56c0,.056.056.056.056.112a3.3,3.3,0,0,1,.224.448c.168.28.672,1.064.728,1.12a1.7,1.7,0,0,1,.28.392c.112.112.336.448.392.5.224.336.392.5.28.56-.224.224-3.415-2.127-5.094-4.7a15.487,15.487,0,0,1-1.679-4.142,11.422,11.422,0,0,1-.168-1.9c-.56,0-1.064-.056-1.623-.056-.9,0-1.791-.056-2.687-.056a18.483,18.483,0,0,1,1.735,1.287l.056.056.056.056a12.944,12.944,0,0,1,1.232,1.455.945.945,0,0,1,.168.336h0a10.009,10.009,0,0,1,.5,1.064c0,.056.56,1.231.616,1.343,0,.056.056.112.056.168,0,0,3.3,5.766,3.359,5.822a1.224,1.224,0,0,0,.168.28v.168c-.224.224-3.974-2.239-5.878-5.15a15.161,15.161,0,0,1-2.015-4.646,16.972,16.972,0,0,1-.224-2.183h-4.422c.448.28,3.582,2.911,4.478,4.758.056.056.9,2.071.952,2.127s.784,1.847.84,1.9.5,1.119.5,1.119c0,.056.28.56.28.616.056.056,2.743,3.471,2.463,3.638-.336.224-5.15-2.855-7.445-6.213a15.936,15.936,0,0,1-2.239-5.43,12.821,12.821,0,0,1-.056-2.519,12.176,12.176,0,0,0-1.4.056c-1.232.056-2.407.056-3.583.112.56.336,2.631,2.015,2.631,2.015a7.063,7.063,0,0,1,1.4,1.791,3.3,3.3,0,0,0,.224.448s1.175,3.415,1.232,3.526c.056.168.56,1.679.616,1.735.168.448,1.064,2.743,1.176,2.911a33.054,33.054,0,0,0,2.015,2.855l.056.056a.206.206,0,0,1,.056.168c0,.056,0,.112-.056.112-.5.224-5.933-3.3-8.228-7.053A13.544,13.544,0,0,1,593.7,228.6c0-.616.224-2.015.28-2.575-1.623.056-3.191.168-4.814.336a1.233,1.233,0,0,0-.448.056,7.774,7.774,0,0,1,1.567,1.4l.056.056.056.056a12.006,12.006,0,0,1,1.12,1.679h0c0,.056.224.672.28.84,0,.056.448,1.343.5,1.455s1.12,3.471,1.175,3.471c0,.056,1.9,2.967,1.679,3.135-.336.168-3.918-2.687-5.486-5.542a12.973,12.973,0,0,1-1.343-4.534c-.056-.448.112-1.567.112-1.959-2.687.224-5.374.5-8.117.672a57.427,57.427,0,0,1-6.941,0C573.271,226.81,573.607,226.754,574.167,226.865Z" transform="translate(-573.361 -165.795)"/><path class="c" d="M598.276,179h0a59.448,59.448,0,0,0,4.086-6.437c1.12-1.959,2.127-3.974,3.191-5.989a12.311,12.311,0,0,1-1.735-.84,11.023,11.023,0,0,1-3.526-3.023c-1.735-2.8-2.463-4.982-2.183-4.87.616.224,4.926,3.415,5.989,5.318a22.639,22.639,0,0,1,1.567,3.079c.28-.5.5-.952.784-1.455.392-.728.784-1.455,1.232-2.183a17.479,17.479,0,0,1-2.351-1.008,14.916,14.916,0,0,1-4.254-4.59c-2.183-3.806-2.631-10.3-2.183-10.58H599c.336.28.84,2.183,2.015,3.918.28.392,3.862,4.422,3.862,4.478.448.5,1.455,1.679,1.511,1.791h0a18.664,18.664,0,0,1,1.064,2.519v.056a.206.206,0,0,0,.056.168,11.651,11.651,0,0,1,.336,2.8c.84-1.455,1.735-2.911,2.631-4.366-.336-.224-1.679-.952-2.127-1.343a16,16,0,0,1-3.583-4.646c-1.791-3.694-2.015-9.348-1.567-9.572.112-.056.28.336.5.952.28.728,1.511,3.191,1.679,3.471v.056c.112.168,1.623,2.239,1.847,2.519,0,.056.056.056.056.112.672.9,2.127,2.911,2.127,3.023l.112.224a7.707,7.707,0,0,1,.728,2.183v.168a14.49,14.49,0,0,1,.224,2.743l.336-.5c.672-1.064,1.343-2.071,2.015-3.135a12.3,12.3,0,0,1-1.511-1.455A16.665,16.665,0,0,1,608.8,148.1c-1.175-3.3-1.008-7.781-.672-7.837h0l.056.056c.056.056.056.168.112.28,0,.056.056.168.056.224.056.168,2.127,5.15,2.183,5.318.056.112.56,1.064.728,1.343.056.056.056.168.112.224,0,.056.056.056.056.112a22.854,22.854,0,0,1,1.455,3.862v.168c.056.784.056,1.511.056,1.959.672-1.008,1.344-2.015,2.071-3.023a12.65,12.65,0,0,1-1.12-1.567,16.218,16.218,0,0,1-1.511-4.31c-.5-3.079.336-7,.616-7,.224,0,1.287,5.766,1.343,5.822,0,.056.28.952.392,1.287v.056c.168.448.28.9.448,1.343a.8.8,0,0,0,.112.336h0a.206.206,0,0,0,.056.168s.112,1.175.112,1.735v.168c-.056.784-.224,1.455-.28,1.847a6.806,6.806,0,0,1,.56-.784c.672-.952,1.344-1.847,2.015-2.743-.112-.224-.728-1.231-.9-1.679a16.852,16.852,0,0,1-.84-4.478c-.112-3.191,1.176-7.221,1.4-7.221.056,0,.056.616.056.672s.224,3.974.392,5.094a.423.423,0,0,0,.056.224c.168.952.336,2.015.5,2.911v.336h0a14.9,14.9,0,0,1-.112,1.959v.168c-.168.84-.392,1.567-.5,1.959l.5-.672c.616-.84,1.287-1.735,1.959-2.575a15.74,15.74,0,0,1-.5-1.735,18.613,18.613,0,0,1-.168-4.422c.336-3.023,1.9-6.549,2.127-6.493.056,0,.056.224,0,.56-.056.392-.168,1.008-.28,1.735-.056.28-.056,3.3-.056,3.694,0,.9.056,3.023.056,3.023v.168a7.594,7.594,0,0,1-.336,1.623v.056c0,.056,0,.056-.056.112-.224.672-.448,1.175-.616,1.567.168-.168.28-.336.448-.5h0c.112-.28,1.232-2.127,1.232-2.127.056-.056.056-.112.112-.112v-.056a.055.055,0,0,1,.056-.056c.112-.112,1.288-1.343,1.344-1.343s1.119-.784,1.511-1.064c.28-.168,5.374-3.918,5.821-4.366a12.637,12.637,0,0,1,.9-.9c.056,0,.056-.056.112,0h0c.168.336-1.9,4.2-4.478,6.493a17.417,17.417,0,0,1-4.366,2.8c-.448.168-1.455.448-1.9.616v.112c-.224.28-.448.616-.672.9a1.7,1.7,0,0,0-.28.392,8.638,8.638,0,0,1,1.287-.672h0c.056,0,.056-.056.112-.056h.056a4.249,4.249,0,0,1,.616-.224s2.519-.28,2.743-.28c.168,0,2.239-.112,2.3-.112.168,0,.56-.056.616-.056.616-.112,1.175-.224,1.623-.336a6.57,6.57,0,0,1,.9-.224c.056,0,.056,0,.056.056h0c0,.28-2.743,2.015-5.206,2.519a12.5,12.5,0,0,1-3.75.112,15.02,15.02,0,0,1-1.511-.392c-.56.784-1.12,1.511-1.679,2.3a7.538,7.538,0,0,1,1.455-.616c.056,0,.056,0,.112-.056h.056c.056,0,.056,0,.112-.056h0a11.181,11.181,0,0,1,1.455-.28h.5c.28,0,.616.056.952.056.5.056,1.064.056,1.567.112h.168c.448.056,4.758-.112,4.87-.112.056,0,.28-.056.392-.056s.112,0,.168.056c.056.28-3.359,2.015-6.213,2.3a13.773,13.773,0,0,1-4.142-.392,13.207,13.207,0,0,1-1.567-.672c-.616.84-1.231,1.623-1.791,2.463a8.247,8.247,0,0,1,1.679-.56h.168a17.5,17.5,0,0,1,2.183-.112c.112,0,.616.112.672.112.112,0,1.231.224,1.343.224.056,0,1.175.224,1.287.224h.112c.056,0,.84.168.9.168.224.056.392.056.56.112h.112a1.575,1.575,0,0,0,.448.056h1.847c.168,0,.56-.056.616-.056.392,0,.616-.056.616.056.056.28-3.638,1.735-6.661,1.735a13.445,13.445,0,0,1-4.422-.84,15.938,15.938,0,0,1-1.679-.9c-.336.448-.616.9-.952,1.343-.5.728-1.008,1.511-1.511,2.239a10.752,10.752,0,0,1,2.015-.728h.168a11.486,11.486,0,0,1,1.9-.224h.392c.056,0,.84.112,1.175.168.056,0,1.343.168,1.455.224h.168s6.661.336,6.717.336h.392v.056c.056.336-4.03,2.071-7.5,2.127a11.866,11.866,0,0,1-7-1.847c-.84,1.231-1.623,2.463-2.407,3.694.448-.224,4.422-1.4,6.437-1.175.112,0,2.239.392,2.3.392.112,0,1.959.336,2.015.336s1.231.168,1.231.168a2.811,2.811,0,0,1,.672.112c.056,0,4.366-.392,4.422-.112,0,.448-5.206,2.8-9.292,2.855a17.256,17.256,0,0,1-5.766-1.064,17.723,17.723,0,0,1-2.127-1.287c-.224.392-.5.784-.728,1.176-.616,1.008-1.232,2.071-1.847,3.079.56-.28,3.135-1.12,3.135-1.12a7.807,7.807,0,0,1,2.3-.224s.392.056.5.056c0,0,3.526.84,3.583.9.168.056,1.735.448,1.791.448.448.112,2.855.56,3.079.616a28.059,28.059,0,0,0,3.527-.112h.056a.206.206,0,0,1,.168.056c.056,0,.112.056.056.112-.056.56-5.989,3.191-10.412,3.023a15.258,15.258,0,0,1-6.045-1.679,18.845,18.845,0,0,1-2.015-1.679l-2.351,4.2a3.186,3.186,0,0,1-.224.392,11.893,11.893,0,0,1,2.015-.56h.168a13.462,13.462,0,0,1,2.015-.056h0c.056,0,.672.168.84.224.056,0,1.4.392,1.511.392s3.527.9,3.527.952c.056,0,3.527,0,3.527.28,0,.336-4.366,1.847-7.669,1.567a12.87,12.87,0,0,1-4.534-1.343,16.328,16.328,0,0,1-1.567-1.176c-1.287,2.407-2.519,4.814-3.862,7.165a49.5,49.5,0,0,1-3.806,5.822A1.06,1.06,0,0,1,598.276,179Z" transform="translate(-584.149 -131.199)"/><g transform="translate(12.28 20.6)"><path class="d" d="M608.527,201.082a14.242,14.242,0,0,0,4.982,2.631c4.142-.784,8.788-3.191,13.154-6.381a18.58,18.58,0,0,1-4.982-2.239,14.116,14.116,0,0,0,7.669.112c.168-.168.392-.336.56-.5a14.666,14.666,0,0,1-5.486-3.974,23.918,23.918,0,0,0,7.893,1.791,43.059,43.059,0,0,0,9.46-12.763h-.112a18.349,18.349,0,0,1-6.717-1.847,12.476,12.476,0,0,0,7.669-.336,10.654,10.654,0,0,0,.056-7.781c-3.806-2.631-9.46-2.183-15.393.168a11.666,11.666,0,0,0-3.415,5.933,8.091,8.091,0,0,1-.28-4.254,53.928,53.928,0,0,0-8.061,5.094,13.424,13.424,0,0,0-.728,5.654,19.961,19.961,0,0,1-.784-4.478,53.86,53.86,0,0,0-4.142,3.806,10.761,10.761,0,0,0,.84,5.542,7.406,7.406,0,0,1-2.743-3.471c-5.262,6.157-7.781,12.763-4.254,17.353a8.866,8.866,0,0,0,7.557,2.855A24.979,24.979,0,0,1,608.527,201.082Z" transform="translate(-598.283 -168)"/><path class="b" d="M595.3,208.188a93.95,93.95,0,0,1,9.964-10.579c3.526-3.3,7.221-6.437,10.971-9.4,3.75-3.023,7.613-5.934,11.531-8.788,3.918-2.8,7.893-5.542,11.979-8.117-4.03,2.687-7.893,5.486-11.755,8.4-3.806,2.911-7.613,5.934-11.251,9.012-3.694,3.079-7.277,6.325-10.691,9.628a95.5,95.5,0,0,0-9.572,10.636Z" transform="translate(-595.3 -169.453)"/></g><g transform="translate(13.232 71.336)"><path class="c" d="M606.519,263.935a8.106,8.106,0,0,0-.168,3.47,21.681,21.681,0,0,0,6.885,5.71,12.972,12.972,0,0,1-.056-3.359,8.608,8.608,0,0,0,1.9,4.31,3.3,3.3,0,0,1,.448.224,8.835,8.835,0,0,1,.84-4.086,14.412,14.412,0,0,0,1.008,4.87,26.921,26.921,0,0,0,9.516,2.015.055.055,0,0,0-.056-.056,11.023,11.023,0,0,1-.672-4.2,7.646,7.646,0,0,0,2.127,4.2,6.769,6.769,0,0,0,4.366-1.959c.5-2.8-1.231-5.822-3.974-8.508a7.22,7.22,0,0,0-4.142-.392,5.081,5.081,0,0,1,2.3-1.232,36.508,36.508,0,0,0-4.87-3.191,7.537,7.537,0,0,0-3.3,1.064,12.793,12.793,0,0,1,2.3-1.567c-1.064-.5-2.071-.952-3.135-1.343a6.416,6.416,0,0,0-2.855,1.9A4.383,4.383,0,0,1,616.2,259.4c-4.758-1.343-9.068-1.064-10.747,2.071a5.488,5.488,0,0,0,.336,4.926A7.862,7.862,0,0,1,606.519,263.935Z" transform="translate(-600.529 -258.638)"/><path class="d" d="M597.224,260.6a59.247,59.247,0,0,1,8.4,2.855c2.743,1.12,5.43,2.407,8.061,3.694,2.631,1.343,5.206,2.743,7.781,4.2s5.094,2.967,7.557,4.59c-2.519-1.567-5.094-2.967-7.669-4.366s-5.206-2.687-7.893-3.974c-2.631-1.232-5.374-2.463-8.117-3.527A57.52,57.52,0,0,0,597,261.44Z" transform="translate(-597 -259.502)"/></g></g><g transform="translate(238.907 92.755)"><path class="c" d="M480.369,215.209h0a71.205,71.205,0,0,0-6.941,3.3c-1.959,1.064-3.918,2.239-5.877,3.359a16.225,16.225,0,0,1,1.064,1.623,10.2,10.2,0,0,1,1.343,4.422c0,3.3-.56,5.542-.784,5.262-.392-.5-2.351-5.542-2.239-7.669a25.519,25.519,0,0,1,.28-3.471c-.5.28-.952.56-1.456.784L463.577,224a14.254,14.254,0,0,1,1.455,2.127,14.008,14.008,0,0,1,1.176,6.157c-.224,4.366-3.247,10.076-3.806,10.132-.056,0-.056-.056-.112-.112-.112-.448.448-2.3.336-4.422,0-.5-.9-5.822-.9-5.877-.112-.616-.336-2.239-.336-2.3h0a15.14,15.14,0,0,1,.448-2.687v-.056c0-.056.056-.112.056-.168a16.628,16.628,0,0,1,1.175-2.575c-1.511.784-3.023,1.567-4.534,2.3a13.9,13.9,0,0,1,1.12,2.239,16.066,16.066,0,0,1,.56,5.822c-.448,4.03-3.3,9.012-3.75,8.956-.168,0-.056-.448.056-1.12a27.4,27.4,0,0,0,.392-3.806v-.056c0-.168-.168-2.743-.224-3.079v-.112c-.056-1.064-.224-3.582-.224-3.694v-.224a10,10,0,0,1,.5-2.239v-.056a.2.2,0,0,1,.056-.112,12.884,12.884,0,0,1,1.232-2.407c-.168.112-.392.168-.56.28-1.12.56-2.239,1.064-3.359,1.567.112.448.448,1.567.5,2.071a19.353,19.353,0,0,1-.224,5.15c-.784,3.415-3.3,7.109-3.638,7h0v-.056a.609.609,0,0,1,.056-.28c0-.056.056-.168.056-.224.056-.168.952-5.542.952-5.654,0-.168.056-1.176.112-1.567v-.336a34.121,34.121,0,0,1,.784-4.03v-.056c0-.056.056-.056.056-.112A10.123,10.123,0,0,1,454,228.7c-1.12.5-2.239,1.008-3.359,1.455a10.869,10.869,0,0,1,.112,1.959,15.686,15.686,0,0,1-1.064,4.422c-1.232,2.855-4.03,5.766-4.254,5.6a56.992,56.992,0,0,1,2.015-5.654c0-.056.224-.952.336-1.287v-.056c.112-.448.224-.952.336-1.343a.8.8,0,0,1,.112-.336h0c0-.056.056-.112.056-.168a12.356,12.356,0,0,1,.84-1.511v-.056l.056-.056a11.847,11.847,0,0,1,1.232-1.4l-.84.336c-1.064.448-2.127.84-3.191,1.287a13.158,13.158,0,0,1-.168,1.9,16.439,16.439,0,0,1-1.623,4.254c-1.623,2.743-4.814,5.542-5.038,5.374-.056-.056.28-.56.28-.616,0,0,1.9-3.471,2.351-4.534,0-.056.056-.112.056-.168.336-.9.784-1.9,1.119-2.743a.564.564,0,0,1,.056-.168c0-.056.056-.112.056-.168h0a12.417,12.417,0,0,1,1.12-1.623l.056-.056.056-.056c.56-.616,1.176-1.12,1.455-1.4-.28.112-.56.224-.784.336-1.008.392-2.015.784-3.023,1.12a14.859,14.859,0,0,1-.5,1.791A17.244,17.244,0,0,1,439.619,239c-1.9,2.407-5.094,4.534-5.262,4.366-.056-.056.112-.224.336-.448.28-.336.728-.784,1.175-1.343.168-.224,1.791-2.8,2.015-3.079.448-.784,1.567-2.575,1.567-2.575l.112-.112a7.926,7.926,0,0,1,1.119-1.231l.056-.056.056-.056a11.841,11.841,0,0,1,1.344-1.008,3.155,3.155,0,0,0-.672.224h0c-.224.168-2.183,1.12-2.183,1.12-.056,0-.112.056-.168.056H439c-.168.056-1.791.448-1.847.448s-1.344.056-1.791.112c-.336,0-6.661.448-7.221.616a6.5,6.5,0,0,1-1.231.28c-.056,0-.056,0-.112-.056h0c.056-.336,3.862-2.519,7.277-3.135a17.313,17.313,0,0,1,5.15-.056c.448.056,1.455.392,1.959.5l.056-.056a7.473,7.473,0,0,1,1.008-.392,3.846,3.846,0,0,0,.448-.168c-.336,0-.84,0-1.455-.056h-.224c-.112,0-.616-.112-.616-.112s-2.239-1.064-2.463-1.176c-.168-.112-1.959-1.119-2.015-1.119a5.178,5.178,0,0,0-.56-.28,7.646,7.646,0,0,0-1.567-.56,4.528,4.528,0,0,1-.84-.28.055.055,0,0,1-.056-.056h0c.168-.224,3.415-.224,5.71.672a13.082,13.082,0,0,1,3.247,1.847c.28.224.84.9,1.064,1.12.9-.336,1.791-.672,2.631-1.008a10.435,10.435,0,0,1-1.567-.224h-.168c-.056,0-.112,0-.112-.056h0a5.534,5.534,0,0,1-1.343-.5h0a.2.2,0,0,1-.112-.056h0a.2.2,0,0,1-.112-.056h0c-.056-.056-.112-.056-.112-.112a6.337,6.337,0,0,1-.728-.56c-.392-.28-.84-.616-1.231-.9-.056-.056-.112-.056-.168-.112-.336-.28-4.086-2.407-4.2-2.463a.946.946,0,0,1-.336-.168c-.056-.056-.112-.056-.112-.112.112-.28,3.918.056,6.437,1.343a14.338,14.338,0,0,1,3.3,2.519,12.3,12.3,0,0,1,.952,1.4c.952-.392,1.9-.728,2.855-1.12a7.876,7.876,0,0,1-1.735-.448c-.056,0-.056,0-.112-.056H446.9a15.48,15.48,0,0,1-1.9-1.064,4.074,4.074,0,0,1-.5-.448c-.112-.112-.9-.784-1.008-.9-.056-.056-.9-.784-1.008-.9l-.056-.056a7.312,7.312,0,0,1-.672-.616c-.168-.168-.336-.28-.448-.392-.056-.056-.056-.056-.112-.056-.168-.112-.28-.224-.392-.28-.28-.168-1.064-.672-1.12-.728a1.676,1.676,0,0,0-.448-.224c-.168-.056-.5-.28-.56-.28-.336-.168-.56-.28-.5-.392.112-.28,4.03.448,6.549,2.127a15.171,15.171,0,0,1,3.3,3.079,12.232,12.232,0,0,1,.952,1.623c.5-.224,1.007-.392,1.511-.616.84-.336,1.679-.728,2.463-1.064a11.722,11.722,0,0,1-2.071-.448c-.056,0-.056,0-.112-.056H450.7a14.826,14.826,0,0,1-1.735-.784c-.056-.056-.28-.168-.336-.224h0c-.056-.056-.672-.56-.952-.784-.056,0-1.064-.9-1.12-.952s-.112-.056-.112-.112c0,0-5.43-3.806-5.486-3.862a1.222,1.222,0,0,1-.28-.168h0v-.056c.112-.336,4.534.392,7.5,2.183a17.838,17.838,0,0,1,3.806,3.359,14.687,14.687,0,0,1,1.175,1.9c1.343-.616,2.687-1.232,3.974-1.847-.5-.056-4.478-1.176-6.045-2.407-.056-.056-1.735-1.511-1.735-1.567-.056-.056-1.511-1.343-1.567-1.343-.056-.056-.9-.784-.952-.84a4.071,4.071,0,0,1-.5-.448c-.056-.056-3.918-1.959-3.806-2.239.224-.392,5.878.392,9.348,2.519a17.085,17.085,0,0,1,4.31,3.974,20.809,20.809,0,0,1,1.12,2.239c.392-.224.84-.392,1.231-.616,1.064-.56,2.127-1.064,3.191-1.623-.616-.056-3.247-.728-3.247-.728a9.677,9.677,0,0,1-2.015-1.008s-.336-.28-.392-.336c0,0-2.519-2.575-2.575-2.631-.112-.112-1.231-1.287-1.287-1.343-.336-.336-2.127-2.015-2.3-2.183-1.287-.9-2.519-1.455-3.023-1.791l-.056-.056-.112-.112c-.056-.056-.056-.112,0-.112.336-.448,6.773.5,10.412,2.967a14.636,14.636,0,0,1,4.2,4.646,18.222,18.222,0,0,1,.84,2.463c1.4-.728,2.855-1.511,4.254-2.3a2.427,2.427,0,0,1,.392-.224,9.437,9.437,0,0,1-2.015-.616c-.056,0-.056,0-.112-.056h-.056a11.108,11.108,0,0,1-1.735-1.064h0l-.616-.616s-.952-1.064-1.063-1.12c-.056-.056-2.463-2.631-2.519-2.687s-3.023-1.9-2.855-2.127c.224-.28,4.7.784,7.333,2.743a13.418,13.418,0,0,1,3.135,3.527c.224.392.56,1.455.728,1.847,2.351-1.343,4.646-2.743,7.053-3.974a49.866,49.866,0,0,1,6.325-2.911C481.209,214.873,480.929,215.1,480.369,215.209Z" transform="translate(-426.8 -192.317)"/><g transform="translate(13.244)"><path class="d" d="M486.643,206.917a13.114,13.114,0,0,0,2.015-5.262c-1.287-4.03-4.142-8.34-7.837-12.315a20.215,20.215,0,0,1-1.623,5.206,14.057,14.057,0,0,0-.784-7.669c-.168-.168-.392-.336-.56-.5a14.519,14.519,0,0,1-3.359,5.933,24.586,24.586,0,0,0,.9-8.061,43.1,43.1,0,0,0-13.77-7.949v.112a18,18,0,0,1-1.064,6.885,12.363,12.363,0,0,0-1.176-7.557,11.231,11.231,0,0,0-7.781.784c-2.183,4.086-1.064,9.684,1.9,15.282a11.471,11.471,0,0,0,6.269,2.687,8.209,8.209,0,0,1-4.2.784,57.2,57.2,0,0,0,5.99,7.445,13.436,13.436,0,0,0,5.71.056,20.334,20.334,0,0,1-4.366,1.287,52.146,52.146,0,0,0,4.254,3.638,11.615,11.615,0,0,0,5.43-1.455,7.307,7.307,0,0,1-3.135,3.135c6.661,4.478,13.6,6.269,17.744,2.239a8.71,8.71,0,0,0,1.959-7.837A22.115,22.115,0,0,1,486.643,206.917Z" transform="translate(-450.461 -175.405)"/><path class="b" d="M494.358,217.223a98.679,98.679,0,0,1-11.643-8.732c-3.694-3.135-7.165-6.437-10.635-9.852-3.415-3.415-6.773-6.885-10.02-10.468s-6.437-7.221-9.46-10.971c3.135,3.694,6.381,7.221,9.684,10.691,3.359,3.471,6.773,6.885,10.244,10.188s7.109,6.493,10.8,9.572a94.541,94.541,0,0,0,11.7,8.34Z" transform="translate(-451.402 -176.195)"/></g><g transform="translate(14.718 43.472)"><path class="c" d="M479.406,255.828a8.091,8.091,0,0,0-2.295-2.575,21.885,21.885,0,0,0-8.9.784,12.77,12.77,0,0,1,2.407,2.351,8.867,8.867,0,0,0-4.366-1.735c-.168.056-.28.112-.448.168a9.022,9.022,0,0,1,2.3,3.471,14.162,14.162,0,0,0-4.142-2.743,27.434,27.434,0,0,0-8.173,5.262h.056a11.569,11.569,0,0,1,3.415,2.463,7.713,7.713,0,0,0-4.422-1.455,6.746,6.746,0,0,0-1.735,4.422c1.623,2.351,4.926,3.3,8.844,3.247a7.354,7.354,0,0,0,3.247-2.631,5.063,5.063,0,0,1-.728,2.463,34.5,34.5,0,0,0,5.71-1.175,7.949,7.949,0,0,0,1.623-3.079,13.962,13.962,0,0,1-.56,2.743,27.1,27.1,0,0,0,3.191-1.287,7.151,7.151,0,0,0,.728-3.359,4.737,4.737,0,0,1,.84,2.575c4.31-2.351,7.221-5.654,6.213-9.012a5.4,5.4,0,0,0-3.694-3.247C479.014,254.708,479.406,255.828,479.406,255.828Z" transform="translate(-453.094 -253.065)"/><path class="d" d="M486.462,255.484a55.37,55.37,0,0,1-8,3.862c-2.743,1.12-5.542,2.127-8.34,3.023s-5.654,1.735-8.452,2.519c-2.855.784-5.71,1.455-8.564,2.071,2.855-.672,5.71-1.455,8.508-2.3s5.6-1.735,8.4-2.743q4.2-1.427,8.229-3.191a56.85,56.85,0,0,0,7.781-4.03Z" transform="translate(-453.097 -253.785)"/></g></g><g transform="translate(230.14 25.805)"><path class="e" d="M468.7,309.15c-.168,2.071,20.431,5.374,46.013,7.389,25.525,2.015,46.4,1.959,46.516-.112.168-2.071-20.431-5.374-46.013-7.389C489.69,307.023,468.867,307.079,468.7,309.15Z" transform="translate(-436.478 -166.635)"/><g transform="translate(40.282)"><path class="f" d="M499.253,200l52,5.654h5.094c3.918,0,7.053-3.638,7.053-8.117V63.917c0-4.478-3.135-8.117-7.053-8.117h-5.094l-52,5.71a7.273,7.273,0,0,0-7.053,7.5V192.55A7.259,7.259,0,0,0,499.253,200Z" transform="translate(-487.106 -55.8)"/><rect class="g" width="17.912" height="4.534" transform="translate(76.362 18.016) rotate(180)"/><rect class="g" width="17.912" height="4.534" transform="translate(76.362 137.536) rotate(180)"/><path class="g" d="M499.341,61.554l52-5.654h5.094c3.918,0,7.053,3.638,7.053,8.117v1.511h-5.374L492.4,67.655A7.225,7.225,0,0,1,499.341,61.554Z" transform="translate(-487.194 -55.844)"/><path class="g" d="M563.678,308.132c0,4.478-3.135,8.117-7.053,8.117h-5.094l-52-5.654c-3.3,0-6.045-.336-6.829-3.526l70.978-.168Z" transform="translate(-487.326 -166.344)"/><path class="h" d="M490.153,200l57.1,5.654c3.918,0,7.053-3.638,7.053-8.117V63.917c0-4.478-3.135-8.117-7.053-8.117l-57.1,5.71a7.273,7.273,0,0,0-7.053,7.5V192.55A7.259,7.259,0,0,0,490.153,200Z" transform="translate(-483.1 -55.8)"/><path class="i" d="M483.1,68.954a7.273,7.273,0,0,1,7.053-7.5l57.1-5.654c3.919,0,7.053,3.638,7.053,8.117v8.061L483.1,76.4V68.954Z" transform="translate(-483.1 -55.8)"/><path class="i" d="M554.4,299.283c0,4.478-3.135,8.117-7.053,8.117l-57.1-5.654a7.273,7.273,0,0,1-7.053-7.5V286.8l71.2,4.422Z" transform="translate(-483.144 -157.495)"/><path class="f" d="M523.1,76.139h.112l21.607-2.071A1.039,1.039,0,0,0,544.655,72l-21.607,2.071a1.054,1.054,0,0,0-.952,1.12A1.029,1.029,0,0,0,523.1,76.139Z" transform="translate(-500.266 -62.928)"/><path class="f" d="M517.2,77.408a1.008,1.008,0,1,0,1.008-1.008A1,1,0,0,0,517.2,77.408Z" transform="translate(-498.112 -64.869)"/></g><g transform="translate(0 0.056)"><g class="j"><g transform="translate(0.085 34.602)"><path class="k" d="M479.694,177.968c0,3.75-2.687,12.595-5.989,12.315-4.142-.336-3.806-1.343-2.127-2.463,1.231-.84,4.422-7,3.806-10.691C476.336,176.009,479.694,177.968,479.694,177.968Z" transform="translate(-437.314 -143.719)"/><path class="l" d="M480.544,177.857c0,3.75-2.967,12.651-6.325,12.539-4.31-.112-3.638-1.567-2.127-2.463,1.287-.784,4.646-6.605,4.142-10.636C477.242,176.178,480.544,177.857,480.544,177.857Z" transform="translate(-437.548 -143.776)"/><path class="m" d="M480,180.569a10.473,10.473,0,0,0,.224-3.191c1.008-1.176,4.31.56,4.31.56a21.914,21.914,0,0,1-1.287,6.213A8.157,8.157,0,0,0,480,180.569Z" transform="translate(-441.538 -143.801)"/><g transform="translate(36.098 36.992)"><path class="n" d="M477.693,183.8a.564.564,0,0,1,.168.056s-.5,1.791-.84,2.687C475.342,186.263,475.174,186.263,477.693,183.8Z" transform="translate(-475.777 -183.8)"/><path class="o" d="M478.061,183.8a12.162,12.162,0,0,1-.84,2.687C475.99,186.263,475.542,186.263,478.061,183.8Z" transform="translate(-475.977 -183.8)"/></g><path class="p" d="M500.935,161.7a6.352,6.352,0,0,1,.672,3.918,7.741,7.741,0,0,1-2.407,5.262,5.383,5.383,0,0,0,3.527-4.422A4.612,4.612,0,0,0,500.935,161.7Z" transform="translate(-449.991 -137.079)"/><path class="q" d="M432.3,163.375c1.9-1.4,7.221-5.374,14.33-5.15s18.472,1.287,19.648,1.231c1.175,0,5.318-.84,5.877-6.661.448-4.366-2.463-6.1-4.03-6.437-1.9-.448-13.154-3.079-17.017-4.03a24.317,24.317,0,0,1-14.386-9.628C437,139.641,437.394,152.46,432.3,163.375Z" transform="translate(-420.539 -124.312)"/><path class="r" d="M454.686,142.328A24.318,24.318,0,0,1,440.3,132.7c.056,1.735.112,3.862.112,6.269a86.285,86.285,0,0,0,15.338,3.638A10.091,10.091,0,0,0,454.686,142.328Z" transform="translate(-424.061 -124.312)"/><g transform="translate(51.057 25.181)"><path class="s" d="M502.7,162.7l.448.112.168.28-.56-.168Z" transform="translate(-502.588 -162.7)"/><path class="s" d="M503.1,164l.784.224.168.336-.84-.224Z" transform="translate(-502.764 -163.272)"/><path class="s" d="M503.3,165.6l.9.28.112.392-.9-.224Z" transform="translate(-502.852 -163.977)"/><path class="s" d="M503.356,167.5l1.064.224v.448L503.3,168Z" transform="translate(-502.852 -164.813)"/><path class="s" d="M503.112,169.4l1.063.168-.056.448-1.12-.168Z" transform="translate(-502.72 -165.65)"/><path class="s" d="M502.668,171.4l1.12.168-.168.392-1.12-.112Z" transform="translate(-502.5 -166.53)"/></g><g transform="translate(51.169 25.237)"><path class="t" d="M503.148,163.136a.245.245,0,0,1,.168.056l-.168-.28-.448-.112v.056l.336.112Z" transform="translate(-502.7 -162.8)"/><path class="t" d="M503.1,164l.616.168.168.336a.245.245,0,0,1,.168.056l-.168-.336L503.1,164Z" transform="translate(-502.876 -163.328)"/><path class="t" d="M503.3,165.6l.728.224.112.392a.245.245,0,0,1,.168.056l-.112-.392-.9-.28Z" transform="translate(-502.964 -164.033)"/><path class="t" d="M503.4,167.5h0l.952.224v.392h.112v-.448Z" transform="translate(-503.008 -164.869)"/><path class="t" d="M503.2,169.5l.952.168-.056.448h.112l.056-.448L503.2,169.5Z" transform="translate(-502.92 -165.75)"/><path class="t" d="M502.8,171.4l1.008.112-.112.392h.112l.168-.392L502.8,171.4Z" transform="translate(-502.744 -166.586)"/></g><path class="p" d="M476.962,159.421c.336-4.422-1.175-6.269-2.631-7.109-.112-.056-.224-.056-.336-.112,1.455.784,3.079,2.575,2.743,7.165-.336,4.758-2.855,7.053-5.038,7.837h.168C474.051,166.474,476.626,164.235,476.962,159.421Z" transform="translate(-437.884 -132.897)"/><path class="t" d="M486.934,161.58c.5-4.254-1.511-6.045-2.743-6.885-2.239-.5-6.157-1.455-9.684-2.3,1.455.84,2.911,2.631,2.631,7.109-.336,4.814-2.911,7.053-5.038,7.837,3.974.28,7.781.56,10.02.728A7.591,7.591,0,0,0,486.934,161.58Z" transform="translate(-438.06 -132.985)"/><path class="p" d="M495.006,163.385c.5-4.086-1.343-5.878-2.631-6.773-.112-.056-.28-.056-.448-.112,1.231.84,3.247,2.631,2.743,6.885a7.54,7.54,0,0,1-4.87,6.493h.224A7.534,7.534,0,0,0,495.006,163.385Z" transform="translate(-445.852 -134.79)"/><path class="t" d="M493.715,156.88c-.224-.056-.616-.168-1.119-.28,1.231.9,3.135,2.743,2.631,6.773a7.5,7.5,0,0,1-4.926,6.493c.784.056,1.287.056,1.511.056,1.176,0,5.318-.84,5.878-6.661C498.137,158.951,495.282,157.272,493.715,156.88Z" transform="translate(-446.072 -134.834)"/><path class="m" d="M435.715,168.1a43.6,43.6,0,0,1-3.415,10.859c1.9-1.4,7.221-5.374,14.33-5.15s18.472,1.287,19.648,1.231a5.764,5.764,0,0,0,4.478-2.519C462.807,171.515,444.111,169.164,435.715,168.1Z" transform="translate(-420.539 -139.896)"/><ellipse class="u" cx="21.887" cy="6.773" rx="21.887" ry="6.773" transform="translate(0 43.441) rotate(-82.918)"/><path class="q" d="M427.932,144.766c-1.232,9.8-3.862,15.953-5.318,17.3-3.694.672-4.646-8.564-3.415-18.36s4.03-17.745,7.893-17.129C428.044,128.365,429.163,134.97,427.932,144.766Z" transform="translate(-414.547 -121.6)"/><path class="m" d="M424.838,127.577a3.116,3.116,0,0,1,2.687-1.008c1.008,1.791,2.127,8.4.9,18.192s-3.862,15.953-5.318,17.3c-1.567.28-2.687-1.231-3.3-3.918C427.693,155.118,431.219,136.03,424.838,127.577Z" transform="translate(-415.036 -121.596)"/><g transform="translate(4.143 4.94)"><g class="v"><path class="w" d="M430,160.8s-2.631-.56-3.806-.952-1.511-.728-1.623-1.4a15.587,15.587,0,0,1,.448-4.758,1.861,1.861,0,0,1,1.679-1.008,38.954,38.954,0,0,1,4.31.168A19.622,19.622,0,0,1,430,160.8Z" transform="translate(-421.265 -138.045)"/></g><g class="v"><path class="x" d="M425.723,156.649c-.224,1.511-.784,2.687-1.288,2.575-.5-.056-.728-1.343-.5-2.855s.784-2.687,1.288-2.575C425.723,153.85,425.947,155.138,425.723,156.649Z" transform="translate(-420.96 -138.535)"/></g><g class="v"><path class="y" d="M425.7,156.861c-.168,1.343-.672,2.351-1.064,2.3s-.56-1.176-.392-2.463c.168-1.343.672-2.351,1.064-2.3S425.872,155.574,425.7,156.861Z" transform="translate(-421.109 -138.803)"/></g><g class="v"><path class="z" d="M424.921,156.693a4.411,4.411,0,0,1,.672-2.015.46.46,0,0,0-.28-.28c-.392-.056-.84.952-1.064,2.3-.168,1.343,0,2.463.392,2.463a.443.443,0,0,0,.392-.28A4.3,4.3,0,0,1,424.921,156.693Z" transform="translate(-421.109 -138.803)"/></g></g><path class="aa" d="M476.4,152.4c3.471.84,7.445,1.735,9.684,2.3a6.106,6.106,0,0,1,2.295,2.743l-9.684-1.847A5.022,5.022,0,0,0,476.4,152.4Z" transform="translate(-439.953 -132.985)"/><path class="aa" d="M494.4,156.6c.5.112.9.224,1.12.28a5.17,5.17,0,0,1,3.526,2.911l-2.407-.448A6.365,6.365,0,0,0,494.4,156.6Z" transform="translate(-447.878 -134.834)"/><path class="ab" d="M424.247,188.9c-.28.392-1.4,1.735-2.351,1.847-1.064.168-.84-1.176.952-1.567C423.464,189.068,424.247,188.9,424.247,188.9Z" transform="translate(-415.677 -149.053)"/><path class="t" d="M428.818,119.2h0c0,.056,0,.056.056.112,3.414,1.175,4.982,10.971,3.582,22.447-1.455,11.531-5.374,20.6-8.956,20.879,3.694.336,7.893-8.956,9.348-20.879C434.3,129.78,432.512,119.648,428.818,119.2Z" transform="translate(-416.665 -118.369)"/><path class="ab" d="M432.478,126.233a5.673,5.673,0,0,0-1.567-2.519c-.952-.5-1.175.84.392,1.791C431.806,125.841,432.478,126.233,432.478,126.233Z" transform="translate(-419.597 -120.308)"/></g><path class="ac" d="M475.792,183.021l2.911,1.343a1.145,1.145,0,0,0,1.511-.56l.168-.336a1.145,1.145,0,0,0-.56-1.511l-2.911-1.343a1.145,1.145,0,0,0-1.511.56l-.168.336A1.2,1.2,0,0,0,475.792,183.021Z" transform="translate(-439.317 -110.755)"/><path class="ac" d="M473.834,187.3l3.023,1.12a1.117,1.117,0,0,0,1.455-.672l.112-.336a1.117,1.117,0,0,0-.672-1.455l-3.023-1.12a1.117,1.117,0,0,0-1.455.672l-.112.336A1.219,1.219,0,0,0,473.834,187.3Z" transform="translate(-438.422 -112.63)"/><path class="ac" d="M471.855,191.4l2.967,1.231a1.223,1.223,0,0,0,1.511-.616l.168-.336a1.223,1.223,0,0,0-.616-1.511l-2.967-1.232a1.224,1.224,0,0,0-1.511.616l-.168.336A1.179,1.179,0,0,0,471.855,191.4Z" transform="translate(-437.562 -114.435)"/><path class="ac" d="M470.09,195.764l3.023,1.064a1.126,1.126,0,0,0,1.455-.728l.112-.336a1.126,1.126,0,0,0-.728-1.455l-3.023-1.064a1.126,1.126,0,0,0-1.455.728l-.112.336A1.172,1.172,0,0,0,470.09,195.764Z" transform="translate(-436.749 -116.334)"/><path class="ad" d="M478.751,196.521l.392-1.567s4.59-4.7,3.862-7.333-3.694-1.567-5.374-1.4-1.064,2.071,1.232,2.8c-2.463-.056-4.478,2.967-5.038,5.206a4.643,4.643,0,0,0,.448,3.023C474.888,198.816,478.751,196.521,478.751,196.521Z" transform="translate(-438.693 -113.117)"/><g transform="translate(33.171 28.822)"><path class="ae" d="M513.746,145.851s-7.725-8.508-7.949-20.263c-.168-12.707,7.5-18.08,17.185-18.192,8.285-.112,12.539,1.287,15.282,6.437,2.127.5,2.911,2.239,3.638,3.75,3.023,6.157,1.959,12.427-.448,18.136C537.7,144.619,529.476,146.243,513.746,145.851Z" transform="translate(-485.981 -107.389)"/><g transform="translate(0 47.639)"><path class="af" d="M478.124,210.914l.56-12.259-7.725-.28s-1.735,19.872.9,21.943c3.135,2.519,6.437,2.3,9.516-.112,6.773-5.318,14.946-15.338,17.465-22.167.84-2.183-3.079-6.717-4.926-5.262-2.8,2.183-4.758,5.43-8,9.236C482.77,205.708,479.8,209.011,478.124,210.914Z" transform="translate(-470.397 -192.495)"/></g><path class="ag" d="M510.248,280.5l-.448,79.542s6.213,3.135,12.091.672l2.239-66.22,1.735-.056,8.452,66.332s4.478,2.015,11.083-.448L538.684,280.5Z" transform="translate(-487.744 -183.599)"/><path class="ah" d="M539.048,280.5H510.5v11.083a63.424,63.424,0,0,0,13.882,3.862l.056-.952,1.735-.112.168,1.343a106.5,106.5,0,0,0,13.938,1.12Z" transform="translate(-488.052 -183.599)"/><g transform="translate(34.819 36.615)"><path class="ad" d="M532.768,184l-.168,5.262,8.732.224.168-6.885A16.453,16.453,0,0,1,532.768,184Z" transform="translate(-532.6 -177.114)"/><path class="ai" d="M541.732,178.342l.168-5.318-8.732-.224L533,179.685A16.977,16.977,0,0,0,541.732,178.342Z" transform="translate(-532.776 -172.8)"/></g><path class="ad" d="M535.248,193.146c5.15,0,6.437-2.855,6.605-3.75a34.384,34.384,0,0,0-11.867-.448C529.874,189.955,530.154,193.146,535.248,193.146Z" transform="translate(-496.623 -143.153)"/><path class="aj" d="M543.765,193.334a45.17,45.17,0,0,0-11.027-4.03c-.28-.056-.5-.112-.784-.168-.168.9-1.176,3.638-6.325,3.638-5.094,0-5.262-2.911-5.15-3.974l-1.175.168c-2.743.448-6.157.9-8.956,2.183,0,0-3.694,16.625-2.071,54.577,0,0,12.315,4.422,32.075.672,0,0-1.847-26.533.728-36.944C541.078,209.455,542.925,199.827,543.765,193.334Z" transform="translate(-486.891 -143.229)"/><path class="af" d="M541.81,220.5c-3.526,18.864-16.457,30.115-33.81,25.693.056,4.59.168,8.508.392,13.938,0,0,12.315,4.422,32.074.672,0,0-1.847-26.533.728-36.944C541.138,223.859,541.418,222.515,541.81,220.5Z" transform="translate(-486.951 -157.185)"/><path class="ad" d="M508.846,136.671c0,10.971-1.063,14.61.672,17.8,1.679,3.023,6.549,7.109,18.024,4.254,8.229-2.071,10.3-8.34,10.3-8.34a3.949,3.949,0,0,0,2.519.448,3.215,3.215,0,0,0,2.631-3.415c-.224-2.911-1.511-3.75-2.631-4.086-1.959-.56-3.3,1.343-3.3,1.343a61.1,61.1,0,0,0-.448-7.221c-.448-3.079-1.008-6.269-15.506-7.165-3.582-.224-8.452-.28-10.356.616C508.9,131.745,508.846,133.76,508.846,136.671Z" transform="translate(-487.182 -117.409)"/><g transform="translate(27.024 27.136)"><path class="ak" d="M522.271,156.389a5.5,5.5,0,0,0-1.623-.28,2.124,2.124,0,0,0-1.455.392c-.392.336-.224.9.112,1.287a7.656,7.656,0,0,0,1.231,1.064,4.6,4.6,0,0,1-1.4-.9c-.112-.112-.168-.224-.28-.336-.056-.168-.168-.28-.168-.448a1.033,1.033,0,0,1,.28-.9,2.292,2.292,0,0,1,1.679-.392A3.944,3.944,0,0,1,522.271,156.389Z" transform="translate(-518.674 -155.867)"/></g><path class="al" d="M532.646,166.5c1.9,2.3-.112,8.9-6.045,1.9C531.358,168.235,532.646,166.5,532.646,166.5Z" transform="translate(-495.14 -133.412)"/><g transform="translate(31.664 20.919)"><path class="am" d="M527.432,145.1c-.336,1.287-1.567,5.038,2.127,5.822,3.638.784,3.359-3.806,3.359-3.806A51.334,51.334,0,0,0,527.432,145.1Z" transform="translate(-526.965 -144.91)"/><path class="ae" d="M528.521,144.839c4.2.84,6.325,2.8,3.638,2.463C529.473,146.91,525.723,144.279,528.521,144.839Z" transform="translate(-527.214 -144.761)"/><path class="an" d="M528.1,154.529c.672-1.455,2.239-1.231,2.743.28" transform="translate(-527.464 -148.629)"/></g><g transform="translate(23.343 20.849)"><path class="ao" d="M516.5,144.9c.336,1.008,1.567,4.59-1.288,5.43-2.8.84-2.911-3.806-2.911-3.806S515.211,145.292,516.5,144.9Z" transform="translate(-512.187 -144.752)"/><path class="ae" d="M515.682,144.671c-3.135.56-5.038,2.575-2.183,1.847S517.3,144.391,515.682,144.671Z" transform="translate(-512.098 -144.635)"/><path class="an" d="M515.8,153.393c.5-1.791,2.407-1.567,2.631-.168" transform="translate(-513.728 -147.927)"/></g><path class="ae" d="M537.876,129.436c-1.567,1.567-5.766,2.407-9.068,2.407-15.17,0-18.3-4.254-18.808-4.758l2.3-5.71a22.275,22.275,0,0,1,13.6-.448A22.853,22.853,0,0,1,537.876,129.436Z" transform="translate(-487.832 -112.973)"/><path class="ap" d="M533.1,172.723c2.183.784,3.191-1.232,3.079-3.023A3.45,3.45,0,0,0,533.1,172.723Z" transform="translate(-498.001 -134.821)"/></g><path class="aq" d="M570.211,289.1a53.089,53.089,0,0,1-4.03,4.086,1.345,1.345,0,0,0-.336.448l-2.295,3.806a.426.426,0,0,0,0,.448h0a.447.447,0,0,0,.728.112l2.351-2.351a.235.235,0,0,1,.392.224l-.728,2.687-.952,4.758a.5.5,0,0,0,.336.56h.056a.521.521,0,0,0,.672-.336l1.847-5.262s-1.119,5.038-1.175,5.318.5.112.56-.056l1.959-4.646s-1.623,4.086-1.679,4.2c-.112.224.392.168.392.168.112-.056.28-.112.336-.224l2.239-3.974s-1.288,2.967-1.4,3.3c-.168.392.392.224.392.224a.558.558,0,0,0,.28-.224l2.015-3.582a1.055,1.055,0,0,0,.112-.448l.112-8.564Z" transform="translate(-478.206 -158.563)"/><path class="aj" d="M559.866,202.841a5.245,5.245,0,0,1,6.269-6.493c1.343.5,2.015,1.567,2.631,3.359a236.409,236.409,0,0,1,7.221,26.981c.784,3.806-4.03,23.734-4.03,23.734l-6.605-1.623s1.175-21.607,1.008-22.223C564.68,220.53,560.761,206.872,559.866,202.841Z" transform="translate(-476.538 -117.646)"/></g></g><path class="ae" d="M505.69,108.7c-3.862,6.437-1.511,13.714,7.333,16.345,8.844,2.687,16.289.56,15.114-4.926s-6.1-5.318-14.386-5.71A8.468,8.468,0,0,1,505.69,108.7Z" transform="translate(-451.974 -79.089)"/><path class="ae" d="M562.8,115.013s.392-4.982,2.183-6.213a18,18,0,0,0-1.567,4.87,8.956,8.956,0,0,1,4.2-1.9C567.278,113.054,562.8,115.013,562.8,115.013Z" transform="translate(-477.905 -79.133)"/><ellipse class="ar" cx="4.926" cy="5.486" rx="4.926" ry="5.486" transform="translate(68.214 133.392)"/></g><path class="as" d="M652.669,112.935a3.135,3.135,0,1,1-3.135-3.135A3.13,3.13,0,0,1,652.669,112.935Z" transform="translate(-284.569 -53.768)"/><circle class="as" cx="0.672" cy="0.672" r="0.672" transform="translate(379.631 55.92)"/><path class="as" d="M681.956,212.623a.728.728,0,1,1-.728-.728A.675.675,0,0,1,681.956,212.623Z" transform="translate(-299.581 -98.711)"/><path class="as" d="M458.518,125.559a1.959,1.959,0,1,1-1.959-1.959A1.947,1.947,0,0,1,458.518,125.559Z" transform="translate(-200.132 -59.843)"/><path class="as" d="M419.463,229.431a1.231,1.231,0,1,1-1.231-1.231A1.242,1.242,0,0,1,419.463,229.431Z" transform="translate(-183.579 -105.892)"/><circle class="as" cx="3.527" cy="3.527" r="3.527" transform="translate(64.989 7.837)"/><circle class="as" cx="1.791" cy="1.791" r="1.791" transform="translate(215.341)"/><circle class="as" cx="2.127" cy="2.127" r="2.127" transform="translate(0 110.889)"/><circle class="as" cx="1.064" cy="1.064" r="1.064" transform="translate(82.957 73.105)"/><circle class="as" cx="1.064" cy="1.064" r="1.064" transform="translate(158.133 142.292)"/><g transform="translate(18.943 14.651)"><path class="at" d="M40.087,127.522c14.386,3.638,28.548,10.636,43.438,12.035a59.75,59.75,0,0,0,32.3-5.989c11.531-5.71,22.223-15.449,35.041-14.61,12.035.784,21.271,10.691,32.242,15.785,9.348,4.366,20.991,4.926,29.723-.616,7.445-4.758,11.643-13.1,17.633-19.536s11.139-9.74,22.279-7.277c0,0,.84.056,1.287-2.575s-.5-2.855-.5-2.855c-6.493-3.191-10.468-8.732-13.1-16.9-4.086-12.707-3.75-17.633-7.109-25.525-2.071-4.814-4.59-9.684-8.844-12.819-6.269-4.646-14.946-4.534-22.614-3.079-12.2,2.3-23.678,7.389-35.713,10.524s-25.245,4.254-36.441-1.176c-7.669-3.694-13.714-10.132-21.439-13.714-8.452-3.918-18.248-3.974-27.428-2.183-9.124,1.791-17.8,5.43-26.533,8.676-3.079,1.176-6.157,2.239-9.236,3.359C38.24,51.842,26.541,126.29,40.087,127.522Z" transform="translate(-33.84 -35.874)"/></g><g transform="translate(5.43 51.848)"><path class="ad" d="M81.018,159.368c.952.728.5,1.959-.056,2.855-1.455,2.351-11.251,11.083-11.251,11.083L66.8,168.94s7.893-8.229,8.9-9.348C76.652,158.585,79.563,158.3,81.018,159.368Z" transform="translate(-34.838 -127.14)"/><g transform="translate(25.245 41.481)"><path class="ad" d="M58.494,212.98c0,.224,1.735,3.582,1.735,3.582v3.359l-.448.392-1.12-2.967-.392,2.351-.728,3.415-.616-.056.336-4.03-.728,3.694-.28-.112.056-3.582-.112,3.247-.392-.28-.28-3.135-.056,2.687-.392-.336-.28-2.967,2.071-5.542Z" transform="translate(-54.8 -192.397)"/><path class="ad" d="M64.349,176.637c1.4.672,2.127,2.687,1.679,4.534l-5.71,17.8-2.519.168s1.791-9.4,3.3-16.961C62,177.476,62.67,175.8,64.349,176.637Z" transform="translate(-56.121 -176.429)"/></g><path class="ad" d="M105.765,165.664c1.064-.56,2.015.336,2.575,1.287,1.511,2.351,4.31,14.274,4.31,14.274l-4.31,1.455s-4.03-10.635-4.646-12.035A4.893,4.893,0,0,1,105.765,165.664Z" transform="translate(-51.02 -130.133)"/><g transform="translate(57.192 49.243)"><path class="ad" d="M127.276,219.3c.112.168,3.638,1.567,3.638,1.567l2.239,2.519-.056.56-2.743-1.511,1.287,2.071,1.679,3.079-.5.392-2.351-3.247,1.847,3.3-.28.112-2.3-2.743,2.015,2.519h-.5l-2.239-2.183,1.735,2.071h-.5l-2.127-2.071L126.1,220.2Z" transform="translate(-118.135 -203.065)"/><path class="ad" d="M113.007,190.746c1.455-.9,2.463-.448,3.359,1.287l6.1,16.4L120.9,209.5s-3.359-5.374-7.165-12.035C111.328,193.209,111.44,191.754,113.007,190.746Z" transform="translate(-111.871 -190.296)"/></g><path class="au" d="M103.527,155.589c-.784-.392-5.6,7.445-5.15,8.844a110.842,110.842,0,0,0,4.59,10.356l6.941-2.911s-2.407-7.669-2.911-9.74C106.438,159.787,105.486,156.54,103.527,155.589Z" transform="translate(-48.726 -125.767)"/><path class="av" d="M21.479,274.255a3.54,3.54,0,0,0-.672,1.287,1.7,1.7,0,0,0,0,1.176l.336.056c-1.9,2.631-5.71,8.844-6.549,10.132v-.056c-.448.672-1.287,2.407-1.287,2.407s-1.008-.168-1.008-.5a45.568,45.568,0,0,1,2.127-8c1.847-4.2,3.638-7.949,3.638-7.949l1.511.616C20.023,273.528,20.807,273.975,21.479,274.255Z" transform="translate(-10.843 -177.374)"/><path class="e" d="M9.7,316.865c0,1.567,16.009,2.855,35.657,2.8,19.7-.056,35.6-1.4,35.6-2.967s-16.009-2.855-35.657-2.8C25.6,313.955,9.7,315.3,9.7,316.865Z" transform="translate(-9.7 -195.467)"/><path class="av" d="M115.9,312.018a4.891,4.891,0,0,0,2.519-1.12,1.57,1.57,0,0,0,.448-.672c2.687-.168,9.068-1.4,10.412-1.623l-.056.056c1.679-.336,2.967-.56,2.967-.56s.672.784.392.9c-.392.168-3.527,2.239-3.862,2.351-3.918,1.343-11.7,4.086-11.7,4.086l-.728-1.623A5.716,5.716,0,0,1,115.9,312.018Z" transform="translate(-56.453 -192.915)"/><path class="aw" d="M93.434,243.928C90.355,237.043,80,209.838,80,209.838c-.112-4.31,12.2.784,12.2.784s4.982,23.846,6.045,29.612C99.423,246,94.217,245.719,93.434,243.928Z" transform="translate(-40.648 -148.894)"/><path class="aw" d="M69.817,239.074l10.356-21.943S82.86,207.952,73.68,207c-3.415.728-4.142,6.717-4.7,7.837l-5.878,22.5C64.164,238.907,68.418,239.8,69.817,239.074Z" transform="translate(-33.209 -148.407)"/><path class="aw" d="M114.01,286.12l-6.773-27.54c-1.287-3.918-3.247-5.038-5.654-3.3-1.511,1.12-.168,5.318,1.511,10.635,2.183,6.829,5.766,21.831,5.766,21.831C111.1,287.743,113,287.407,114.01,286.12Z" transform="translate(-49.861 -169.311)"/><path class="aw" d="M25.558,265.1l24.686-10.8a14.814,14.814,0,0,1,2.8.392,3.853,3.853,0,0,1,.9,2.631c-.392,3.3-1.343,3.247-3.415,4.086L26.733,270.2C26.565,270.029,24.158,267.175,25.558,265.1Z" transform="translate(-16.489 -169.23)"/><path class="ax" d="M82.743,152.24c1.959-.56,4.366.168,6.325.56,2.015.392,2.631,1.288,3.527,2.743.672,1.064,1.175,3.638.448,8.62s-2.183,22.67-2.687,24.853c-3.471,3.471-16.289,1.623-19.256-1.567,4.534-17.577,4.2-23.51,6.493-28.828C79.385,154.646,80.168,152.911,82.743,152.24Z" transform="translate(-36.731 -124.209)"/><path class="au" d="M82.586,154.572c-1.623-2.127-4.366-1.511-6.941.784A71.186,71.186,0,0,0,68.2,163.92l4.422,5.766s7.053-6.269,8.564-7.781S84.209,156.7,82.586,154.572Z" transform="translate(-35.454 -124.75)"/><path class="ay" d="M100.342,149.745l.784-5.6-5.15-1.847L94.8,148.569C95.7,149.745,98.662,151.2,100.342,149.745Z" transform="translate(-47.164 -119.923)"/><g transform="translate(39.728)"><path class="az" d="M103.694,106.565c1.008,2.015-.9,7-.9,7s-7.333-1.176-9.74-1.064c-2.351.056-4.086,5.989-6.045,11.027-2.351,1.959-7.109-3.918-4.926-10.747-.672,1.12-1.287,1.12-1.287,1.12s-.9-2.519,2.071-4.478a5.849,5.849,0,0,1-2.127.56,3.374,3.374,0,0,1,2.743-1.4c.448-2.911.84-3.75,1.9-4.534a9.352,9.352,0,0,1-.336,2.239s1.175-2.519,5.654-3.471,5.206-.224,5.206-.224a4.174,4.174,0,0,1-2.351.672C97.593,103.374,100.728,104.158,103.694,106.565Z" transform="translate(-80.673 -102.325)"/><path class="ad" d="M105.473,124.549c-1.287,6.437-1.12,8.732-2.519,10.412-1.343,1.567-4.7,3.415-11.139.336-3.079-1.511-3.247-5.822-3.247-5.822a2.634,2.634,0,0,1-1.511-.056,1.873,1.873,0,0,1-1.12-2.3c.448-1.679,1.343-2.015,2.071-2.071a1.939,1.939,0,0,1,1.791,1.176,38.328,38.328,0,0,1,1.12-4.2c.616-1.735,1.287-4.086,8.173-2.743,2.127.448,4.982.84,6.045,1.623C106.032,121.582,105.808,122.814,105.473,124.549Z" transform="translate(-82.955 -109.617)"/><path class="az" d="M111.28,107.167a5.453,5.453,0,0,0-4.478-1.231c.56.28.56,1.175.224,1.679-1.679,2.3-4.2.9-6.325.392a7.549,7.549,0,0,0-6.325,1.455,9.023,9.023,0,0,0-2.575,3.694,5.743,5.743,0,0,1,.784-.224c1.959-.5,3.806.28,6.829,2.183,3.247,2.071,7.5,2.855,10.971.9C113.687,114.108,114.526,109.966,111.28,107.167Z" transform="translate(-85.572 -103.879)"/><path class="az" d="M92.489,128.7c-1.008,1.847-.728,4.086.056,4.982C93.609,131.835,92.489,128.7,92.489,128.7Z" transform="translate(-85.589 -113.936)"/><g transform="translate(16.528 18.011)"><path class="ak" d="M110.2,134.668a3.169,3.169,0,0,1,1.008-.168,1.114,1.114,0,0,1,.952.448.508.508,0,0,1,0,.56,2.436,2.436,0,0,1-.336.392,2.852,2.852,0,0,1-.952.392,4.176,4.176,0,0,0,.84-.5,1.484,1.484,0,0,0,.28-.336.478.478,0,0,0,0-.392,1.315,1.315,0,0,0-.784-.392A3.043,3.043,0,0,0,110.2,134.668Z" transform="translate(-110.2 -134.5)"/></g><g transform="translate(12.993 13.531)"><path class="ba" d="M107.531,126.8c0,.784.112,3.582-2.127,3.694s-1.343-3.023-1.343-3.023A29.168,29.168,0,0,1,107.531,126.8Z" transform="translate(-103.884 -126.63)"/><path class="bb" d="M107.134,126.5c-2.575.112-4.086,1.064-2.463,1.12S108.87,126.443,107.134,126.5Z" transform="translate(-103.935 -126.497)"/></g><g transform="translate(18.69 13.803)"><path class="bc" d="M114.475,127.5c-.336.56-.952,3.023.56,3.806,1.567.784,1.9-3.583,1.9-3.583A7.249,7.249,0,0,1,114.475,127.5Z" transform="translate(-114.062 -127.21)"/><path class="bb" d="M115.041,126.992c1.9-.112,3.247.784,1.511.784C114.761,127.776,114.033,127.048,115.041,126.992Z" transform="translate(-114.292 -126.983)"/></g><path class="bd" d="M101.414,139.8c-.616,1.287.056,3.023,1.008,3.247,1.455.392,1.231-1.176,2.631-1.679A9.512,9.512,0,0,1,101.414,139.8Z" transform="translate(-89.7 -118.823)"/><path class="be" d="M116.948,132.06c-.056.28-.168.5-.28.5s-.168-.224-.168-.56c.056-.28.168-.5.28-.5C116.948,131.5,117,131.724,116.948,132.06Z" transform="translate(-96.446 -115.169)"/><path class="be" d="M107.748,131.6a.658.658,0,0,1-.224.56c-.112,0-.224-.224-.224-.5a.658.658,0,0,1,.224-.56C107.692,131.1,107.8,131.324,107.748,131.6Z" transform="translate(-92.395 -114.993)"/></g><path class="bf" d="M114.735,311.95l5.094-1.9a.87.87,0,0,0,.5-1.12l-.56-1.567a.87.87,0,0,0-1.12-.5l-5.094,1.9a.87.87,0,0,0-.5,1.119l.56,1.567A.87.87,0,0,0,114.735,311.95Z" transform="translate(-55.177 -192.342)"/><path class="bf" d="M24.083,272.126l1.064,5.318a.872.872,0,0,0,1.008.672l1.623-.336a.872.872,0,0,0,.672-1.008l-1.064-5.318a.872.872,0,0,0-1.008-.672l-1.623.336A.872.872,0,0,0,24.083,272.126Z" transform="translate(-16.022 -176.477)"/></g><g transform="translate(83.063 53.471)"><path class="bg" d="M235.7,181.664c-1.231,1.008-.784,3.527,0,5.486l6.157,14.162,1.567-2.351-4.142-14.442S237.6,180.209,235.7,181.664Z" transform="translate(-186.489 -138.744)"/><path class="bh" d="M192.647,207.012c0,.224,1.959,3.471,1.959,3.471l.28,3.359-.392.392-1.343-2.855-.224,2.407-.5,3.471h-.616l.056-4.03-.5,3.75-.28-.112-.168-3.582.112,3.247-.392-.28-.5-3.079.168,2.687-.392-.336-.5-2.967,1.679-5.654Z" transform="translate(-166.444 -149.986)"/><path class="bh" d="M196.495,177.468c1.455.448,1.959,1.567,1.12,3.527-3.75,8.676-4.03,14.386-4.03,14.386l-1.791.9a123.894,123.894,0,0,1,.448-12.763C192.856,178.644,193.92,176.685,196.495,177.468Z" transform="translate(-167.493 -136.955)"/><path class="bi" d="M236.984,129.7c.672,5.374-1.4,14.834-2.519,17.8-3.135-1.511-5.766-5.262-5.766-5.262l2.519-9.964Z" transform="translate(-183.745 -116)"/><path class="bj" d="M239.321,152.25c-.784-.448-3.694,1.567-3.526,3.023.112,1.008.672,14.946.672,14.946l3.75,1.9s1.679-12.147,1.791-14.274C242.12,154.993,241,153.146,239.321,152.25Z" transform="translate(-186.865 -125.899)"/><path class="e" d="M152.3,316.865c0,1.567,16.009,2.855,35.657,2.8,19.7-.056,35.6-1.4,35.6-2.967s-16.009-2.855-35.657-2.8C168.2,313.955,152.244,315.3,152.3,316.865Z" transform="translate(-150.111 -197.09)"/><path class="bg" d="M156.568,273.9a3.54,3.54,0,0,0-.672,1.287,1.7,1.7,0,0,0,0,1.176v.056c-1.9,2.631-4.366,5.878-5.206,7.165v-.056c-.448.672-1.287,2.407-1.287,2.407s-1.008-.168-1.008-.5a14.639,14.639,0,0,1,1.12-4.982c1.847-4.2,3.638-7.949,3.638-7.949l1.511.616A13.857,13.857,0,0,1,156.568,273.9Z" transform="translate(-148.389 -178.865)"/><path class="bg" d="M227.338,242.333,213.4,209.587c-.112-4.142,12.147.728,12.147.728l6.045,28.716C232.263,248.882,229.241,243.173,227.338,242.333Z" transform="translate(-177.009 -150.434)"/><path class="bg" d="M202.549,239,213.3,216.552s2.687-8.9-6.437-9.852c-3.359.672-4.086,6.493-4.646,7.613L196,239.166C196.952,240.678,201.15,239.726,202.549,239Z" transform="translate(-169.349 -149.898)"/><path class="bg" d="M235.021,255.861c1.119-2.239,4.254-1.176,5.43,1.9l6.941,29.779-3.247.728s-7.389-19.76-8.284-23.622C234.965,260.731,233.9,258.1,235.021,255.861Z" transform="translate(-186.316 -171.014)"/><path class="bg" d="M160.3,268.876a4.065,4.065,0,0,1,.448-2.463l21.215-9.348c1.232.168,4.422-1.343,4.534-1.176a3.719,3.719,0,0,1,.9,2.575c-.392,3.191-1.287,3.135-3.359,3.974l-23.4,7.277C160.412,269.6,160.3,269.044,160.3,268.876Z" transform="translate(-153.633 -171.547)"/><path class="bg" d="M251.1,310.267a4.891,4.891,0,0,0,2.519-1.119,1.571,1.571,0,0,0,.448-.672c2.687-.168,6.381-.448,7.725-.672l-.056.056c1.679-.336,2.967-.56,2.967-.56s.672.784.392.9c-.392.168-3.526,2.239-3.862,2.351-3.918,1.343-9.068,3.135-9.068,3.135l-.728-1.623A7.828,7.828,0,0,1,251.1,310.267Z" transform="translate(-193.606 -194.186)"/><path class="bk" d="M153.153,272.4l1.511.616c.056,0,.168.056.224.056a18.468,18.468,0,0,0-2.3,3.862c-1.287,2.183-2.407,4.366-2.015,6.661-.448.728-1.176,2.239-1.176,2.239s-1.008-.168-1.008-.5a14.639,14.639,0,0,1,1.12-4.982C151.362,276.206,153.153,272.4,153.153,272.4Z" transform="translate(-148.389 -178.821)"/><path class="bk" d="M251.6,311.722a46.259,46.259,0,0,0,4.646-1.064c2.127-.56,4.59-1.175,6.045-2.855,1.511-.28,2.687-.5,2.687-.5s.672.784.392.9c-.392.168-3.527,2.239-3.862,2.351-3.918,1.343-9.068,3.135-9.068,3.135l-.728-1.623A.8.8,0,0,0,251.6,311.722Z" transform="translate(-193.826 -194.186)"/><path class="bl" d="M217.115,148.448l8.34-.448L231,150.519c.672,2.071,1.343,4.086,1.679,5.542.392,1.455,1.959,3.974,1.623,5.6a4.609,4.609,0,0,1-2.015,2.855c-.672,1.791-1.567,3.694-2.351,6.045-1.511,4.478-2.407,8.061-2.407,8.061l-8.173-.784c-.56.056-2.015.672-1.847-1.679.392-5.654-1.064-20.375-1.008-21.495C216.947,150.015,216.443,148.224,217.115,148.448Z" transform="translate(-178.373 -124.056)"/><path class="bm" d="M229.979,139.586a4.073,4.073,0,0,1-1.679-1.343l1.343-13.042,4.534.728-.112,13.826C233.226,140.705,231.043,140.034,229.979,139.586Z" transform="translate(-183.569 -114.018)"/><path class="bk" d="M208.435,192.8c4.926,3.247,11.139,1.735,11.139,1.735l4.814,32.97s-21.1.784-28.6-5.542c-.28-.224,2.407-14.89,8-24.07C206.2,193.92,208.435,192.8,208.435,192.8Z" transform="translate(-169.246 -143.779)"/><path class="bl" d="M204.376,151.586c-.5.672-7.557,9.516-10.076,13.378a6.582,6.582,0,0,0,5.486,2.3c2.351-2.463,7.669-7.389,10.3-9.964,2.687-2.575,1.959-7.725,0-7.669C208.35,149.682,206.447,148.787,204.376,151.586Z" transform="translate(-168.601 -124.731)"/><path class="bm" d="M233.712,150.115a9.637,9.637,0,0,1-1.9,6.661c-3.471-1.847-7.109-8.564-7.109-8.564l4.646-.112Z" transform="translate(-181.984 -124.1)"/><path class="bn" d="M229.664,132.679c-.392-.56-.784-.616-1.064-1.176l2.183-10.8,4.422,1.343-1.567,11.027C232.406,133.742,230.727,134.134,229.664,132.679Z" transform="translate(-183.701 -112.037)"/><path class="bh" d="M223.827,127.383s9.18,2.351,10.691.112a4.917,4.917,0,0,0,.616-1.959c.056-.336.224-1.623.28-1.959.28-3.135.112-7.165-1.008-9.684-1.847-4.142-7.837-9.4-11.755-7.277C218.677,108.8,211.344,115.852,223.827,127.383Z" transform="translate(-178.536 -105.622)"/><path class="bh" d="M245.469,127.016h0l.112-.616a25.672,25.672,0,0,0,4.2,2.575c-2.127,2.855-5.094,1.064-4.982-2.015a1.194,1.194,0,0,1,.672.056C245.637,127.072,245.581,127.016,245.469,127.016Z" transform="translate(-190.83 -114.547)"/><path class="bo" d="M221.733,107.73s.616-1.791-3.191-2.3c-4.086-.56-7.781-.28-11.083,4.366-1.735,2.463-2.407,6.157-1.343,11.587.672,3.471-1.12,11.643-8.117,14.946-2.071,2.463,4.814,6.605,7.389,6.213.84-.112,4.534-1.735,7.333-9.348a21.172,21.172,0,0,1-2.743,8.844c-.28.5,2.911-.84,4.366-2.8,3.191-4.366,7.669-21.047,3.526-27.54C216.471,109.409,221.733,107.73,221.733,107.73Z" transform="translate(-170.061 -105.225)"/><path class="bo" d="M229.8,112.443c1.567,2.575,13.378,2.463,12.371-3.75-.84,3.527-3.135-1.959-8.508-2.8C232.152,105.67,228.569,110.428,229.8,112.443Z" transform="translate(-184.118 -105.516)"/><g transform="translate(53.164 10.481)"><path class="bp" d="M246.184,124c.672,1.567.728,3.023-1.4,3.079s-1.232-2.631-1.232-2.631A21.129,21.129,0,0,1,246.184,124Z" transform="translate(-243.366 -123.971)"/><path class="bq" d="M248.087,127.724a.266.266,0,1,1-.5-.168c.056-.112.224-.224.336-.168C248.087,127.388,248.143,127.556,248.087,127.724Z" transform="translate(-245.213 -125.456)"/><path class="br" d="M245.673,123.977c-2.351.224-2.519.728-1.4.616C245.841,124.425,247.3,123.809,245.673,123.977Z" transform="translate(-243.471 -123.949)"/></g><g transform="translate(52.806 17.731)"><path class="br" d="M242.767,136.9a.994.994,0,0,0,.224.56,1.037,1.037,0,0,0,.448.392,1.716,1.716,0,0,0,1.176-.056.982.982,0,0,0-.28.224.8.8,0,0,1-.336.112,1.6,1.6,0,0,1-.728,0,1.1,1.1,0,0,1-.5-.5A1.593,1.593,0,0,1,242.767,136.9Z" transform="translate(-242.725 -136.9)"/></g><path class="bg" d="M245.716,212.38a36.785,36.785,0,0,1-.392,3.75l-.224,3.806.672.168.9-3.415,2.071,2.463,2.071,2.911.672-.336-1.9-3.638,2.631,3.135.28-.28-1.847-3.359,2.3,2.015.28-.448-1.735-2.183,1.176,1.12.112-.392-2.519-2.687L247.4,212.1Z" transform="translate(-190.965 -152.275)"/></g><g transform="translate(162.947 50.491)"><g transform="translate(17.713 29.909)"><path class="bh" d="M324.344,155.88c1.008-1.343,2.743-.728,4.03.056,3.3,2.015,13.826,17.073,13.826,17.073l-4.422,2.687s-11.475-10.915-13.1-12.371C323.225,161.925,322.833,157.951,324.344,155.88Z" transform="translate(-323.025 -154.106)"/><path class="bs" d="M329.772,169.211c-1.9-1.847-5.038-5.71-5.6-6.157-1.623-1.455-2.015-5.822-.392-8.117a4.334,4.334,0,0,1,4.422-1.455c2.407,1.008,6.269,7.221,8,10.3A53.094,53.094,0,0,1,329.772,169.211Z" transform="translate(-322.744 -153.331)"/><g transform="translate(14.361 5.3)"><path class="bh" d="M376.1,169.965c.224-.168,1.791-4.31,1.791-4.31l2.967-2.631.672.056-1.735,3.247,2.407-1.511,3.583-2.015.448.616-3.806,2.8,3.806-2.183.112.336-3.191,2.687,2.911-2.407.056.56-2.519,2.687,2.351-2.071v.616l-2.407,2.575-6.269,2.519Z" transform="translate(-360.594 -162.8)"/><path class="bh" d="M348.455,182.788a4.978,4.978,0,0,1,2.855-4.926l14.834-5.262,1.231,1.791-11.923,8.173C355.508,182.564,348.959,185.307,348.455,182.788Z" transform="translate(-348.398 -167.114)"/></g></g><path class="e" d="M291.1,314.417c0,2.127,10.747,3.75,23.958,3.694s23.958-1.791,23.9-3.918c0-2.127-10.747-3.75-23.958-3.694S291.044,312.29,291.1,314.417Z" transform="translate(-291.1 -192.613)"/><path class="bt" d="M344.043,310.247s-7.109-3.023-8.788-3.75c-1.679-.784-4.254-1.455-5.094-.672s-.672,3.079-.672,3.079,7.5,3.359,9.964,3.583c1.567.168,4.982-.952,4.982-.952Z" transform="translate(-307.994 -190.402)"/><path class="bu" d="M335.6,203.912l-1.9,57.32-4.366-.84L327.6,203.8C328.5,203.856,334.989,203.912,335.6,203.912Z" transform="translate(-307.168 -145.641)"/><path class="bv" d="M335.081,301.575v2.911c0,1.343-5.989.056-5.989.056l-.392-2.855C328.756,301.631,335.865,301.183,335.081,301.575Z" transform="translate(-307.653 -188.615)"/><path class="bt" d="M331.309,315.187s-7-3.862-8.62-4.814c-1.679-.952-4.2-1.959-5.094-1.12-.952.84-.9,3.471-.9,3.471s7.333,4.31,9.852,4.7c1.567.28,5.094-.784,5.094-.784Z" transform="translate(-302.369 -191.927)"/><path class="bw" d="M324.819,206.1l-4.254,57.04-4.366-.9-2.8-55.249C314.352,207.05,324.2,206.042,324.819,206.1Z" transform="translate(-300.917 -146.651)"/><path class="bv" d="M322.537,305.153s0,1.735-.056,3.247-6.045-.056-6.045-.056l-.336-3.191C316.1,305.1,323.321,304.761,322.537,305.153Z" transform="translate(-302.106 -190.177)"/><path class="bx" d="M317.237,151.1a9.639,9.639,0,0,1,8.732,6.829c1.735,5.038,3.806,25.805,3.415,29.611a29.182,29.182,0,0,1-19.984,0c1.735-18.64.84-22.838.952-30.171C310.408,152.607,315.613,150.984,317.237,151.1Z" transform="translate(-299.156 -122.436)"/><path class="by" d="M324.966,150.456v1.959a2.715,2.715,0,0,1-2.071.9,3.162,3.162,0,0,1-2.183-.672L320.6,150.4Z" transform="translate(-304.087 -122.132)"/><g transform="translate(4.926 30.941)"><path class="bh" d="M309.556,160.46c1.176.224,1.288,1.567,1.176,2.631-.336,2.8-5.654,14.778-5.654,14.778l-4.478-2.743s3.75-10.747,4.2-12.2C305.246,161.524,307.709,160.124,309.556,160.46Z" transform="translate(-300.208 -157.48)"/><g transform="translate(0.219 16.862)"><path class="bh" d="M309.323,221.8a38.241,38.241,0,0,0,3.079,2.519l1.4,3.079-.224.5-2.239-2.239.616,2.351.728,3.415-.616.224-1.343-3.806.84,3.638h-.336l-1.4-3.247,1.232,2.967-.448-.112-1.567-2.743,1.064,2.463-.5-.168-1.511-2.631-.392-5.878Z" transform="translate(-303.553 -201.367)"/><path class="bh" d="M301.751,185.3a4.086,4.086,0,0,1,3.415,3.471l2.183,18.584-2.239,1.231s-2.239-9.292-4.03-16.793C299.96,187.034,299.9,185.243,301.751,185.3Z" transform="translate(-300.291 -185.298)"/></g><path class="bs" d="M309.08,155.581c-2.351-1.231-4.59.448-5.99,3.582a95.3,95.3,0,0,0-3.191,9.124l7.109,3.806s3.023-7.221,3.806-9.236S311.487,156.812,309.08,155.581Z" transform="translate(-299.9 -155.175)"/></g><g transform="translate(5.318)"><path class="bz" d="M321.311,113.334c-2.8-.28-6.493-.56-8.732-.112-2.239.392-3.023,6.269-4.142,11.307-1.959,2.183-7.277-2.687-6.213-9.46-.448,1.175-1.064,1.231-1.064,1.231s-1.175-2.239,1.343-4.534a7.254,7.254,0,0,1-1.9.84,3.338,3.338,0,0,1,2.407-1.735c0-2.8.224-3.694,1.12-4.59a8.907,8.907,0,0,1,0,2.183s1.511-4.814,7.557-4.086c6.325,1.176,10.8-.616,11.531-2.183-.28,3.415-1.735,4.59-1.735,4.59s4.422-2.127,4.254-6.885c1.847,7.893-.392,9.46-.392,9.46s2.351-1.847,2.855-3.135c.616,3.359-3.079,5.989-3.918,6.493a8.14,8.14,0,0,0,2.463-.9S326.517,113.782,321.311,113.334Z" transform="translate(-300.6 -99.9)"/><path class="bh" d="M326.02,125.8c-.28,6.269.224,8.4-.9,10.188-1.008,1.679-3.974,3.918-10.468,1.959-3.135-.952-3.918-5.038-3.918-5.038a2.432,2.432,0,0,1-1.455.168,1.774,1.774,0,0,1-1.4-2.015c.224-1.679,1.008-2.127,1.623-2.239a1.8,1.8,0,0,1,1.847.84,35.332,35.332,0,0,1,.448-4.142c.336-1.735.672-4.086,7.333-3.75,2.071.112,4.87.056,5.933.616S326.132,124.126,326.02,125.8Z" transform="translate(-303.798 -109.516)"/><g transform="translate(17.8 19.48)"><path class="ak" d="M332.4,134.98a2.685,2.685,0,0,1,.952-.28,1.466,1.466,0,0,1,.952.28.564.564,0,0,1,.168.5.291.291,0,0,1-.112.224l-.168.168a2.436,2.436,0,0,1-.84.448,2.51,2.51,0,0,0,.728-.56.543.543,0,0,0,.112-.728,1.028,1.028,0,0,0-.84-.28A5.854,5.854,0,0,1,332.4,134.98Z" transform="translate(-332.4 -134.7)"/></g><g transform="translate(12.727 23.79)"><path class="ak" d="M323.372,142.4a1.153,1.153,0,0,0,.392.952,2.335,2.335,0,0,0,.9.5,6.425,6.425,0,0,0,1.064.056c.336-.056.728-.112,1.064-.168-.168.056-.336.168-.5.224s-.336.112-.56.168a3.75,3.75,0,0,1-1.12,0,1.808,1.808,0,0,1-.952-.56A1.654,1.654,0,0,1,323.372,142.4Z" transform="translate(-323.336 -142.4)"/></g><g transform="translate(13.475 15.817)"><path class="ca" d="M328.02,128.4c.168.728.728,2.967-1.343,3.3-2.127.336-1.791-2.3-1.791-2.3A26.239,26.239,0,0,1,328.02,128.4Z" transform="translate(-324.758 -128.264)"/><path class="bz" d="M327.487,128.181c-2.407.336-3.694,1.4-2.127,1.287C326.871,129.356,329.054,127.957,327.487,128.181Z" transform="translate(-324.673 -128.157)"/><path class="cb" d="M328.767,133.731c-.336-.84-1.231-.784-1.567.112" transform="translate(-325.786 -130.348)"/></g><g transform="translate(19.416 15.782)"><path class="cc" d="M335.406,128.3c-.112.616-.5,2.743,1.175,2.967,1.679.28,1.4-2.407,1.4-2.407S336.189,128.468,335.406,128.3Z" transform="translate(-335.285 -128.185)"/><path class="bz" d="M335.866,128.1c1.847.056,3.079,1.064,1.4.9C335.642,128.825,334.915,128.042,335.866,128.1Z" transform="translate(-335.354 -128.095)"/><path class="cb" d="M337.411,132.908c-.448-1.008-1.511-.672-1.511.112" transform="translate(-335.556 -129.938)"/></g><path class="bz" d="M313.667,132.8c-.672,1.9-.112,3.974.784,4.7C315.178,135.6,313.667,132.8,313.667,132.8Z" transform="translate(-306.222 -114.384)"/></g><path class="bz" d="M315.2,122.3a7.8,7.8,0,0,1,6.773-.112c4.03,1.791,7.165,1.231,7.053-1.008S318.111,118.608,315.2,122.3Z" transform="translate(-301.71 -108.532)"/></g><g transform="translate(128.186 26.925)"><path class="cd" d="M258.332,57.8h-27.54A1.768,1.768,0,0,0,229,59.591V76.384a1.768,1.768,0,0,0,1.791,1.791h27.54a1.768,1.768,0,0,0,1.791-1.791V59.591A1.768,1.768,0,0,0,258.332,57.8Z" transform="translate(-229 -57.8)"/><path class="cd" d="M253.3,93.9l.616,4.03a.37.37,0,0,0,.672.168l3.526-4.2Z" transform="translate(-239.698 -73.693)"/><path class="r" d="M254.64,66.2a3.549,3.549,0,0,0-3.079,1.735,3.482,3.482,0,0,0-3.079-1.735,3.608,3.608,0,0,0-3.582,3.582c0,4.59,6.605,7.389,6.605,7.389s6.605-3.359,6.605-7.389A3.412,3.412,0,0,0,254.64,66.2Z" transform="translate(-236 -61.498)"/></g><g transform="translate(62.582 32.298)"><path class="cd" d="M131.951,67.4h-18.92a1.242,1.242,0,0,0-1.231,1.231V80.163a1.242,1.242,0,0,0,1.231,1.231h18.92a1.242,1.242,0,0,0,1.231-1.231V68.631A1.207,1.207,0,0,0,131.951,67.4Z" transform="translate(-111.8 -67.4)"/><path class="cd" d="M128.6,92.156l.448,2.743c.056.224.336.336.448.112L131.9,92.1Z" transform="translate(-119.196 -78.274)"/><path class="r" d="M129.417,73.2a2.6,2.6,0,0,0-2.127,1.175,2.481,2.481,0,0,0-4.59,1.287c0,3.135,4.534,5.094,4.534,5.094s4.534-2.3,4.534-5.094A2.293,2.293,0,0,0,129.417,73.2Z" transform="translate(-116.599 -69.953)"/></g><g transform="translate(166.53 8.956)"><path class="cd" d="M305.113,25.7h-7.165a.441.441,0,0,0-.448.448v4.366a.441.441,0,0,0,.448.448h7.165a.441.441,0,0,0,.448-.448V26.148A.441.441,0,0,0,305.113,25.7Z" transform="translate(-297.5 -25.7)"/><path class="cd" d="M303.8,35.1l.168,1.064c0,.112.112.112.168.056l.9-1.12Z" transform="translate(-300.274 -29.838)"/><path class="r" d="M304.119,27.9a.91.91,0,0,1-1.567,0,.943.943,0,0,0-.952.952c0,1.175,1.735,1.959,1.735,1.959s1.735-.9,1.735-1.959A.981.981,0,0,0,304.119,27.9Z" transform="translate(-299.305 -26.669)"/></g><g transform="translate(190.431 35.097)"><path class="cd" d="M359.288,72.4H341.376a1.182,1.182,0,0,0-1.176,1.176V84.491a1.182,1.182,0,0,0,1.176,1.175h17.912a1.182,1.182,0,0,0,1.175-1.175V73.52A1.172,1.172,0,0,0,359.288,72.4Z" transform="translate(-340.2 -72.4)"/><path class="cd" d="M356,95.9l.392,2.631a.254.254,0,0,0,.448.112l2.3-2.743Z" transform="translate(-347.156 -82.746)"/><g transform="translate(6.101 1.641)"><path class="r" d="M356.189,79.96a2.424,2.424,0,0,1,.84-1.623,3.2,3.2,0,0,0,.784-1.567c0-.448-.168-1.064.28-1.343.5-.28,1.343.056,1.455,1.12.056,1.064-.056,1.4-.224,1.623s0,.224.168.224h1.847a.838.838,0,0,1,.84.784.914.914,0,0,1-.224.616.935.935,0,0,1,.336.784.651.651,0,0,1-.448.672.9.9,0,0,1-.448,1.12.879.879,0,0,1-.84,1.064h-2.911c-.84,0-1.4-.336-1.4-.784A21.306,21.306,0,0,1,356.189,79.96Z" transform="translate(-353.334 -75.332)"/><path class="r" d="M353.059,86.958h-1.847a.12.12,0,0,1-.112-.112V82.312a.12.12,0,0,1,.112-.112h1.847a.241.241,0,0,1,.224.224v4.31C353.339,86.846,353.227,86.958,353.059,86.958Z" transform="translate(-351.1 -78.355)"/></g></g><g transform="translate(104.34 3.303)"><path class="cd" d="M200.618,15.6H187.24a.824.824,0,0,0-.84.84v8.173a.824.824,0,0,0,.84.84h13.378a.824.824,0,0,0,.84-.84V16.44A.861.861,0,0,0,200.618,15.6Z" transform="translate(-186.4 -15.6)"/><path class="cd" d="M198.1,33.1l.28,1.959a.2.2,0,0,0,.336.112l1.735-2.071Z" transform="translate(-191.551 -23.304)"/><g transform="translate(4.534 1.269)"><path class="r" d="M198.112,21.3a1.732,1.732,0,0,1,.616-1.176,2.09,2.09,0,0,0,.56-1.176c0-.336-.168-.784.224-1.008s1.008.056,1.064.84a1.863,1.863,0,0,1-.168,1.231c-.112.168,0,.168.112.168h1.343a.6.6,0,0,1,.616.56.671.671,0,0,1-.168.448.7.7,0,0,1,.224.56.456.456,0,0,1-.336.5.659.659,0,0,1-.336.84.631.631,0,0,1-.616.784h-2.183c-.616,0-1.064-.224-1.064-.56A12.169,12.169,0,0,0,198.112,21.3Z" transform="translate(-196.041 -17.867)"/><path class="r" d="M195.9,26.482h-1.287a.12.12,0,0,1-.112-.112V23.012a.12.12,0,0,1,.112-.112H195.9a.241.241,0,0,1,.224.224V26.2A.256.256,0,0,1,195.9,26.482Z" transform="translate(-194.5 -20.083)"/></g></g></g></g><text class="ce" transform="translate(872 560)"><tspan x="0" y="0">INVITE YOUR</tspan><tspan class="cf" y="0" xml:space="preserve"> FRIENDS</tspan></text><text class="cg" transform="translate(872 593)"><tspan x="0" y="0">There are many variations of passages of Lorem Ipsum </tspan><tspan x="0" y="22">available, but the majority have suffered alteration in some </tspan><tspan x="0" y="44">form, by injected humour,</tspan></text><g transform="translate(595 190)"><g transform="translate(-168 -2340)"><rect class="ch" width="40" height="40" rx="3" transform="translate(446 2816)"/><g transform="translate(437.922 2825)"><path class="r" d="M33.545,0,30.687,0C27.476,0,25.4,2.129,25.4,5.425v2.5H22.526a.449.449,0,0,0-.449.45V12a.449.449,0,0,0,.449.449H25.4v9.144a.449.449,0,0,0,.449.449H29.6a.449.449,0,0,0,.449-.449V12.449h3.36A.449.449,0,0,0,33.859,12V8.375a.45.45,0,0,0-.45-.45H30.049V5.806c0-1.019.243-1.536,1.57-1.536h1.926a.449.449,0,0,0,.449-.449V.454A.45.45,0,0,0,33.545,0Z"/></g></g><g transform="translate(-168 -2340)"><rect class="ci" width="40" height="40" rx="3" transform="translate(496 2816)"/><g transform="translate(505 2779)"><g transform="translate(0 48)"><path class="r" d="M22,50.116a9.4,9.4,0,0,1-2.6.712,4.485,4.485,0,0,0,1.984-2.493,9.013,9.013,0,0,1-2.86,1.092,4.51,4.51,0,0,0-7.8,3.084,4.644,4.644,0,0,0,.1,1.028,12.766,12.766,0,0,1-9.3-4.718A4.511,4.511,0,0,0,2.918,54.85,4.454,4.454,0,0,1,.88,54.295v.049a4.531,4.531,0,0,0,3.614,4.432,4.5,4.5,0,0,1-1.183.148,3.988,3.988,0,0,1-.854-.077,4.553,4.553,0,0,0,4.214,3.142,9.062,9.062,0,0,1-5.592,1.924A8.45,8.45,0,0,1,0,63.851a12.7,12.7,0,0,0,6.919,2.024A12.748,12.748,0,0,0,19.756,53.041c0-.2-.007-.392-.017-.583A9,9,0,0,0,22,50.116Z" transform="translate(0 -48)"/></g></g></g><g transform="translate(-168 -2340)"><rect class="cj" width="40" height="40" rx="3" transform="translate(546 2816)"/><g transform="translate(557 2817.292)"><g transform="translate(0 9.708)"><rect class="r" width="3.983" height="11.962" transform="translate(0.229 5.758)"/><path class="r" d="M162.473,140.7a4.287,4.287,0,0,0-3.319-1.37,4.783,4.783,0,0,0-1.382.187,3.136,3.136,0,0,0-1.05.525,4.5,4.5,0,0,0-1.153,1.266v-1.7H151.6l.012.579q.012.579.012,3.573t-.024,7.809h3.971V144.9a2.915,2.915,0,0,1,.133-.978,2.564,2.564,0,0,1,.767-1.032,1.954,1.954,0,0,1,1.274-.417,1.717,1.717,0,0,1,1.527.718,3.492,3.492,0,0,1,.489,1.986v6.4h3.971v-6.855A5.748,5.748,0,0,0,162.473,140.7Z" transform="translate(-145.188 -133.851)"/><path class="r" d="M2.245,9.708a2.272,2.272,0,0,0-1.623.585A1.944,1.944,0,0,0,0,11.772a1.978,1.978,0,0,0,.6,1.472,2.178,2.178,0,0,0,1.593.591h.024a2.274,2.274,0,0,0,1.636-.591,1.911,1.911,0,0,0,.61-1.472,2.013,2.013,0,0,0-.616-1.479A2.207,2.207,0,0,0,2.245,9.708Z" transform="translate(0 -9.708)"/></g></g></g><g transform="translate(-168 -2340)"><rect class="ck" width="40" height="40" rx="3" transform="translate(596 2816)"/><g transform="translate(557.996 2824)"><g transform="translate(48.004)"><path class="r" d="M57.887,0C51.435,0,48,4.134,48,8.642c0,2.091,1.168,4.7,3.038,5.525.284.128.438.074.5-.19.056-.2.3-1.164.421-1.618a.416.416,0,0,0-.1-.409A5.361,5.361,0,0,1,50.751,8.7c0-3.144,2.5-6.2,6.753-6.2,3.678,0,6.251,2.389,6.251,5.807,0,3.862-2.044,6.534-4.7,6.534a2.1,2.1,0,0,1-2.217-2.581c.419-1.7,1.242-3.527,1.242-4.752A1.825,1.825,0,0,0,56.192,5.5c-1.5,0-2.71,1.482-2.71,3.471a4.948,4.948,0,0,0,.447,2.117s-1.48,5.979-1.755,7.1a15.878,15.878,0,0,0,.109,5.216.155.155,0,0,0,.282.072A18.537,18.537,0,0,0,55,18.882c.182-.672.931-3.4.931-3.4a4.067,4.067,0,0,0,3.431,1.636c4.508,0,7.765-3.962,7.765-8.879C67.113,3.527,63.079,0,57.887,0Z" transform="translate(-48.004)"/></g></g></g><g transform="translate(-168 -2340)"><rect class="cl" width="40" height="40" rx="3" transform="translate(646 2816)"/><path class="r" d="M10,0h0A9.994,9.994,0,0,0,1.9,15.861L.657,19.576,4.5,18.347A10,10,0,1,0,10,0Zm5.819,14.121a2.822,2.822,0,0,1-1.963,1.411c-.523.111-1.2.2-3.5-.753a12.527,12.527,0,0,1-4.979-4.4A5.711,5.711,0,0,1,4.19,7.366,3.192,3.192,0,0,1,5.212,4.932a1.453,1.453,0,0,1,1.023-.359c.124,0,.235.006.335.011.294.012.441.03.635.494.241.581.829,2.016.9,2.164a.6.6,0,0,1,.043.541,1.728,1.728,0,0,1-.324.459c-.147.17-.287.3-.435.483-.135.159-.288.329-.118.622a8.876,8.876,0,0,0,1.623,2.016,7.352,7.352,0,0,0,2.345,1.446.632.632,0,0,0,.7-.111,12.1,12.1,0,0,0,.781-1.035.558.558,0,0,1,.717-.217c.27.094,1.7.8,1.993.946s.488.217.559.341a2.49,2.49,0,0,1-.173,1.388Z" transform="translate(656.003 2826)"/></g></g></g></svg>