<svg xmlns="http://www.w3.org/2000/svg" viewBox="0 0 61 60" width="61" height="60">
	<style>
		tspan { white-space:pre }
		.shp0 { fill: #f8bd22 } 
	</style>
	<path id="Shape" fill-rule="evenodd" class="shp0" d="M60 9.72C60 11.15 58.89 12.25 57.43 12.25L54.26 12.25L51 51.55C50.91 56.2 47.14 59.92 42.43 59.92L17.48 59.92C12.77 59.92 9 56.2 8.91 51.55L5.74 12.17L2.57 12.17C1.11 12.17 0 11.07 0 9.63C0 8.2 1.11 7.1 2.57 7.1L17.14 7.1L17.14 3.97C17.14 1.77 19.2 0.08 21.77 0.08L38.23 0.08C40.8 0.08 42.86 1.77 42.86 3.97L42.86 7.1L57.43 7.1C58.89 7.1 60 8.28 60 9.72ZM22.29 7.1L37.71 7.1L37.71 5.15L22.29 5.15L22.29 7.1ZM25.8 43.69L24.86 23.07C24.77 21.72 23.66 20.62 22.29 20.62L22.2 20.62C20.74 20.62 19.63 21.8 19.71 23.24L20.66 43.86C20.74 45.21 21.86 46.31 23.23 46.31L23.31 46.31C24.77 46.23 25.8 45.04 25.8 43.69ZM40.28 23.24C40.28 21.89 39.26 20.7 37.8 20.62L37.71 20.62C36.34 20.62 35.23 21.72 35.14 23.07L34.2 43.69C34.2 45.04 35.23 46.23 36.69 46.31L36.77 46.31C38.14 46.31 39.26 45.21 39.34 43.86L40.28 23.24Z"/>
</svg>