<svg xmlns="http://www.w3.org/2000/svg" width="40" height="40" viewBox="0 0 40 40">
  <g id="Group_472" data-name="Group 472" transform="translate(-446 -2816)">
    <rect id="Rectangle_117" data-name="Rectangle 117" width="40" height="40" rx="3" transform="translate(446 2816)" fill="#4867aa"/>
    <g id="facebook-logo_1_" data-name="facebook-logo (1)" transform="translate(437.922 2825)">
      <path id="Path_505" data-name="Path 505" d="M33.545,0,30.687,0C27.476,0,25.4,2.129,25.4,5.425v2.5H22.526a.449.449,0,0,0-.449.45V12a.449.449,0,0,0,.449.449H25.4v9.144a.449.449,0,0,0,.449.449H29.6a.449.449,0,0,0,.449-.449V12.449h3.36A.449.449,0,0,0,33.859,12V8.375a.45.45,0,0,0-.45-.45H30.049V5.806c0-1.019.243-1.536,1.57-1.536h1.926a.449.449,0,0,0,.449-.449V.454A.45.45,0,0,0,33.545,0Z" fill="#fff"/>
    </g>
  </g>
</svg>
