<svg xmlns="http://www.w3.org/2000/svg" width="18" height="17.999" viewBox="0 0 18 17.999">
  <path id="gear" d="M12,9A3,3,0,0,0,9,6,3,3,0,0,0,6,9a3,3,0,0,0,3,3,3,3,0,0,0,3-3Zm6-1.278v2.6a.451.451,0,0,1-.094.269.358.358,0,0,1-.235.153l-2.168.328a7.479,7.479,0,0,1-.457,1.066q.41.586,1.254,1.617a.453.453,0,0,1,.117.293.391.391,0,0,1-.105.269,11.934,11.934,0,0,1-1.16,1.266q-.843.832-1.1.832a.572.572,0,0,1-.3-.105l-1.617-1.266a6.7,6.7,0,0,1-1.066.446,19.108,19.108,0,0,1-.34,2.18A.394.394,0,0,1,10.3,18H7.7a.443.443,0,0,1-.287-.1.346.346,0,0,1-.134-.251L6.95,15.492a7.255,7.255,0,0,1-1.055-.434L4.242,16.313a.421.421,0,0,1-.293.105.4.4,0,0,1-.293-.129A15.457,15.457,0,0,1,1.723,14.32a.458.458,0,0,1-.082-.269.451.451,0,0,1,.094-.269q.176-.246.6-.78t.633-.826a5.8,5.8,0,0,1-.48-1.16L.34,10.7a.369.369,0,0,1-.246-.146A.446.446,0,0,1,0,10.278v-2.6a.451.451,0,0,1,.094-.269.354.354,0,0,1,.223-.153L2.5,6.926a5.784,5.784,0,0,1,.457-1.078Q2.484,5.18,1.7,4.231a.441.441,0,0,1-.117-.282.494.494,0,0,1,.105-.27A11.6,11.6,0,0,1,2.842,2.42q.85-.838,1.107-.838a.5.5,0,0,1,.3.117L5.871,2.953a6.7,6.7,0,0,1,1.067-.445,19.108,19.108,0,0,1,.34-2.18A.394.394,0,0,1,7.7,0h2.6a.443.443,0,0,1,.287.1.348.348,0,0,1,.135.252l.328,2.157a7.255,7.255,0,0,1,1.054.434l1.664-1.254a.38.38,0,0,1,.281-.105.453.453,0,0,1,.293.117,16.054,16.054,0,0,1,1.933,1.992.379.379,0,0,1,.082.258.451.451,0,0,1-.094.27q-.176.246-.6.78t-.633.826a7.087,7.087,0,0,1,.481,1.148L17.66,7.3a.369.369,0,0,1,.246.147A.447.447,0,0,1,18,7.723Z" fill="#2a2f4d"/>
</svg>
