<svg xmlns="http://www.w3.org/2000/svg" width="36" height="31.65" viewBox="0 0 36 31.65">
  <g id="girl" transform="translate(0.001 -30.934)">
    <path id="Path_439" data-name="Path 439" d="M36,40.194a2.045,2.045,0,0,1-2.043-2.043V36.4a5.471,5.471,0,0,0-10.034-3.016,12.065,12.065,0,0,0-5-1.077H17.07a12.065,12.065,0,0,0-4.995,1.076A5.471,5.471,0,0,0,2.042,36.4v1.748A2.045,2.045,0,0,1,0,40.194V42.3H5.125a12.162,12.162,0,0,0-.189,2.142V46H4.117a3.492,3.492,0,0,0,0,6.985H5.2a12.155,12.155,0,0,0,11.867,9.6h1.855a12.155,12.155,0,0,0,11.867-9.6h1.087a3.492,3.492,0,0,0,0-6.985H31.06V44.445a12.161,12.161,0,0,0-.189-2.142H36ZM18.926,34.42a10.039,10.039,0,0,1,9.97,8.97h-.713a5.62,5.62,0,0,1-5.614-5.614H20.459a5.62,5.62,0,0,1-5.614,5.614H7.1a10.039,10.039,0,0,1,9.97-8.97ZM3.613,40.194a4.126,4.126,0,0,0,.538-2.043V36.4a3.361,3.361,0,0,1,6.079-1.976A12.2,12.2,0,0,0,5.7,40.194Zm.5,10.683a1.383,1.383,0,0,1,0-2.766h.819v2.338c0,.143,0,.286.008.428H4.117Zm14.809,9.6H17.07A10.036,10.036,0,0,1,7.045,50.449V45.5h7.8a7.728,7.728,0,0,0,6.669-3.831A7.728,7.728,0,0,0,28.183,45.5h.768v4.949A10.036,10.036,0,0,1,18.926,60.474ZM31.879,48.111a1.383,1.383,0,0,1,0,2.766h-.827c0-.142.008-.285.008-.428V48.111h.819Zm-1.588-7.917a12.2,12.2,0,0,0-4.524-5.766,3.361,3.361,0,0,1,6.08,1.975v1.748a4.126,4.126,0,0,0,.538,2.043Z"/>
    <path id="Path_440" data-name="Path 440" d="M175.734,270.791h2.109v2.11h-2.109Z" transform="translate(-163.379 -222.992)"/>
    <path id="Path_441" data-name="Path 441" d="M306.234,270.791h2.109v2.11h-2.109Z" transform="translate(-284.703 -222.992)"/>
    <path id="Path_442" data-name="Path 442" d="M198.359,352.335a2.253,2.253,0,0,1-2.25-2.25H194a4.359,4.359,0,1,0,8.719,0h-2.109A2.253,2.253,0,0,1,198.359,352.335Z" transform="translate(-180.36 -296.711)"/>
  </g>
</svg>
