<svg xmlns="http://www.w3.org/2000/svg" xmlns:xlink="http://www.w3.org/1999/xlink" width="150" height="150" viewBox="0 0 150 150">
  <defs>
    <clipPath id="clip-path">
      <circle id="Ellipse_24" data-name="Ellipse 24" cx="75" cy="75" r="75" transform="translate(516 513)" fill="#22d3bd"/>
    </clipPath>
  </defs>
  <g id="Group_273" data-name="Group 273" transform="translate(-441 -398)">
    <circle id="Ellipse_11" data-name="Ellipse 11" cx="75" cy="75" r="75" transform="translate(441 398)" fill="#ff0175"/>
    <g id="Group_274" data-name="Group 274">
      <circle id="Ellipse_11-2" data-name="Ellipse 11" cx="75" cy="75" r="75" transform="translate(441 398)" fill="#2a2f4d"/>
      <g id="Mask_Group_2" data-name="Mask Group 2" transform="translate(-75 -115)" clip-path="url(#clip-path)">
        <g id="girl_2_" data-name="girl (2)" transform="translate(523 551.578)">
          <path id="Path_443" data-name="Path 443" d="M153.453,166.17l-.366-1.253a1.265,1.265,0,0,0-1.373-.9l-1.279-9.592a9.591,9.591,0,0,0-5.218-7.311l-4.132-2.066a1.212,1.212,0,0,0-1.636.579l-8.26-3.039a3.836,3.836,0,0,1-2.623-3.64v-6.187l8.263-3.443a11.509,11.509,0,0,0,7.083-10.624v-1.918a5.755,5.755,0,1,0,0-11.51v-3.837c0-5.3-4.294-13.428-9.592-13.428H99.791c-5.3,0-9.592,8.131-9.592,13.428v3.837a5.755,5.755,0,0,0,0,11.51v1.918a11.51,11.51,0,0,0,7.083,10.625l8.264,3.443v6.187a3.837,3.837,0,0,1-2.623,3.64l-8.1,2.979a1.2,1.2,0,0,0-1.6-.523l-3.768,1.884a9.8,9.8,0,0,0-5.588,7.5l-1.279,9.592a1.265,1.265,0,0,0-1.373.9l-.366,1.253a1.266,1.266,0,0,0,.86,1.57l2.734.8v5.788a3.837,3.837,0,0,0,3.837,3.837h57.55a3.837,3.837,0,0,0,3.837-3.837v-5.732l2.925-.853A1.266,1.266,0,0,0,153.453,166.17Z" transform="translate(-49.261 -66.898)" fill="#ffd7a3"/>
          <path id="Path_444" data-name="Path 444" d="M201.127,274h-23.02v6.348a3.836,3.836,0,0,1-1.859,3.285C192.3,286.4,201.127,274,201.127,274Z" transform="translate(-121.822 -208.294)" fill="#fdc88e"/>
          <g id="Group_275" data-name="Group 275" transform="translate(33.046 78.019)">
            <path id="Path_445" data-name="Path 445" d="M156.747,346.36l-1.532-11.492A9.591,9.591,0,0,0,150,327.557l-4.132-2.066a1.223,1.223,0,0,0-1.723.806,23.023,23.023,0,0,1-44.424-.007,1.216,1.216,0,0,0-1.714-.8l-3.768,1.884a9.794,9.794,0,0,0-5.588,7.5l-1.562,11.71c5.068,1.745,13.743,4.353,13.743,4.353V358.6h42.2v-7.673Z" transform="translate(-87.087 -325.36)" fill="#d22f6a"/>
          </g>
          <g id="Group_276" data-name="Group 276" transform="translate(33.087 84.676)">
            <path id="Path_446" data-name="Path 446" d="M100.912,371.452a11.489,11.489,0,0,0-2.255-6.32l-9.006-12.008a9.347,9.347,0,0,0-.874,2.85l-1.521,11.4Z" transform="translate(-87.257 -353.125)" fill="#f14080"/>
          </g>
          <g id="Group_277" data-name="Group 277" transform="translate(31.538 97.107)">
            <path id="Path_447" data-name="Path 447" d="M80.85,407.129a1.266,1.266,0,0,0,.86,1.57l14.339,4.183v-1.434a11.465,11.465,0,0,0-.35-2.665l-12.914-3.767a1.265,1.265,0,0,0-1.569.86Z" transform="translate(-80.799 -404.965)" fill="#d22f6a"/>
          </g>
          <g id="Group_278" data-name="Group 278" transform="translate(89.04 84.676)">
            <path id="Path_448" data-name="Path 448" d="M320.6,371.452a11.489,11.489,0,0,1,2.255-6.32l9.006-12.008a9.348,9.348,0,0,1,.874,2.85l1.521,11.4Z" transform="translate(-320.598 -353.125)" fill="#f14080"/>
          </g>
          <g id="Group_279" data-name="Group 279" transform="translate(88.992 97.107)">
            <path id="Path_449" data-name="Path 449" d="M335.6,407.129a1.266,1.266,0,0,1-.86,1.57l-14.34,4.183v-1.434a11.466,11.466,0,0,1,.35-2.665l12.914-3.767a1.265,1.265,0,0,1,1.569.86Z" transform="translate(-320.4 -404.965)" fill="#d22f6a"/>
          </g>
          <g id="Group_280" data-name="Group 280" transform="translate(16 34.53)">
            <path id="Path_450" data-name="Path 450" d="M37.1,144c-5.755,0-17.265,2.158-17.265,19.183S16,201.55,16,201.55s19.183-2.032,19.183-24.938c0-21.341,3.837-24.938,3.837-24.938Z" transform="translate(-16 -144)" fill="#9d6e48"/>
          </g>
          <g id="Group_281" data-name="Group 281" transform="translate(16 36.448)">
            <path id="Path_451" data-name="Path 451" d="M35.183,182.693c0-21.341,3.837-24.938,3.837-24.938L35.183,152c-2.218.3-10.708.36-9.592,15.347,1.119,15.027,6.714,30.214-9.592,40.285C16,207.632,35.183,205.6,35.183,182.693Z" transform="translate(-16 -152)" fill="#8d5f3d"/>
          </g>
          <g id="Group_282" data-name="Group 282" transform="translate(33.265 32.612)">
            <path id="Path_452" data-name="Path 452" d="M94.109,143.844l-2.387-6.579a1.918,1.918,0,0,0-3.607,1.309l2.387,6.579a1.918,1.918,0,1,0,3.607-1.309Z" transform="translate(-88 -136)" fill="#6aa2de"/>
          </g>
          <g id="Group_283" data-name="Group 283" transform="translate(96.57 34.53)">
            <path id="Path_453" data-name="Path 453" d="M353.918,144c5.755,0,17.265,2.158,17.265,19.183s3.837,38.367,3.837,38.367-19.183-2.032-19.183-24.938c0-21.341-3.837-24.938-3.837-24.938Z" transform="translate(-352 -144)" fill="#9d6e48"/>
          </g>
          <g id="Group_284" data-name="Group 284" transform="translate(96.57 36.448)">
            <path id="Path_454" data-name="Path 454" d="M355.837,182.693c0-21.341-3.837-24.938-3.837-24.938L355.837,152c2.218.3,10.708.36,9.592,15.347-1.119,15.027-6.714,30.214,9.592,40.285C375.02,207.632,355.837,205.6,355.837,182.693Z" transform="translate(-352 -152)" fill="#8d5f3d"/>
          </g>
          <g id="Group_285" data-name="Group 285" transform="translate(96.101 32.612)">
            <path id="Path_455" data-name="Path 455" d="M350.159,143.844l2.387-6.579a1.918,1.918,0,1,1,3.607,1.309l-2.387,6.579a1.918,1.918,0,1,1-3.607-1.309Z" transform="translate(-350.043 -136)" fill="#6aa2de"/>
          </g>
          <path id="Path_456" data-name="Path 456" d="M155.468,105.265v-3.837c0-5.3-4.294-13.428-9.592-13.428h-34.53c-5.3,0-9.592,8.131-9.592,13.428v3.836a5.755,5.755,0,1,0,0,11.51v1.919a11.51,11.51,0,0,0,7.083,10.625l12.4,5.165a19.182,19.182,0,0,0,7.378,1.476h0a19.185,19.185,0,0,0,7.378-1.476l12.4-5.165a11.509,11.509,0,0,0,7.083-10.624v-1.918a5.755,5.755,0,1,0,0-11.51Z" transform="translate(-60.817 -66.898)" fill="#ffe1b2"/>
          <g id="Group_286" data-name="Group 286" transform="translate(52.448 40.285)">
            <path id="Path_457" data-name="Path 457" d="M169.918,173.755h0A1.924,1.924,0,0,1,168,171.837v-1.918A1.924,1.924,0,0,1,169.918,168h0a1.924,1.924,0,0,1,1.918,1.918v1.918A1.924,1.924,0,0,1,169.918,173.755Z" transform="translate(-168 -168)" fill="#623f33"/>
          </g>
          <g id="Group_287" data-name="Group 287" transform="translate(79.305 40.285)">
            <path id="Path_458" data-name="Path 458" d="M281.918,173.755h0A1.924,1.924,0,0,1,280,171.837v-1.918A1.924,1.924,0,0,1,281.918,168h0a1.924,1.924,0,0,1,1.918,1.918v1.918A1.924,1.924,0,0,1,281.918,173.755Z" transform="translate(-280 -168)" fill="#623f33"/>
          </g>
          <g id="Group_289" data-name="Group 289" transform="translate(58.203 53.713)">
            <g id="Group_288" data-name="Group 288">
              <path id="Path_459" data-name="Path 459" d="M201.591,229.806a15.978,15.978,0,0,1-8.752-2.3A1.918,1.918,0,0,1,195,224.332a14.091,14.091,0,0,0,13.189,0,1.918,1.918,0,0,1,2.158,3.171A15.977,15.977,0,0,1,201.591,229.806Z" transform="translate(-191.999 -223.998)" fill="#e4b07b"/>
            </g>
          </g>
          <path id="Path_460" data-name="Path 460" d="M126.945,87c-.332,10.369-25.19,17.506-25.19,17.506a5.755,5.755,0,1,0,0,11.51v1.918a11.51,11.51,0,0,0,7.083,10.625l12.395,5.165a19.212,19.212,0,0,0,1.853.659,80.064,80.064,0,0,1-11.261-9.8,8.992,8.992,0,0,1-2.4-6.145V107.712c5.491-1.917,20.9-8.212,21.1-18.557.015-.784,0-1.5-.03-2.159Z" transform="translate(-60.817 -66.135)" fill="#ffd7a3"/>
          <path id="Path_461" data-name="Path 461" d="M138.149,0c-6.235,0-9.592,1.918-9.592,1.918S125.2,0,118.966,0s-29.894,12-21.1,39.819c0,0,30.693-5.449,30.693-18.717,0,13.268,30.693,18.717,30.693,18.717C168.043,12,144.384,0,138.149,0Z" transform="translate(-60.763)" fill="#9d6e48"/>
          <g id="Group_290" data-name="Group 290" transform="translate(35.166)">
            <path id="Path_462" data-name="Path 462" d="M128.558,1.919h0S125.2,0,118.966,0s-29.894,12-21.1,39.819c0,0,3.716-.661,8.558-2.079C101,12.8,122.609,1.938,128.558,1.919Z" transform="translate(-95.929)" fill="#8d5f3d"/>
          </g>
          <g id="Group_291" data-name="Group 291" transform="translate(65.581 104.952)">
            <circle id="Ellipse_13" data-name="Ellipse 13" cx="2" cy="2" r="2" transform="translate(0.418 0.47)" fill="#ff8c51"/>
          </g>
          <g id="Group_292" data-name="Group 292" transform="translate(51.157 104.952)">
            <circle id="Ellipse_14" data-name="Ellipse 14" cx="2" cy="2" r="2" transform="translate(-0.158 0.47)" fill="#ff8c51"/>
          </g>
          <g id="Group_293" data-name="Group 293" transform="translate(80.908 104.952)">
            <circle id="Ellipse_15" data-name="Ellipse 15" cx="2" cy="2" r="2" transform="translate(0.092 0.47)" fill="#ff8c51"/>
          </g>
          <g id="Group_294" data-name="Group 294" transform="translate(73.696 104.952)">
            <ellipse id="Ellipse_16" data-name="Ellipse 16" cx="1.5" cy="2" rx="1.5" ry="2" transform="translate(0.305 0.47)" fill="#ffc84a"/>
          </g>
          <g id="Group_295" data-name="Group 295" transform="translate(58.369 104.952)">
            <circle id="Ellipse_17" data-name="Ellipse 17" cx="2" cy="2" r="2" transform="translate(-0.369 0.47)" fill="#ffc84a"/>
          </g>
          <g id="Group_296" data-name="Group 296" transform="translate(70.089 99.543)">
            <ellipse id="Ellipse_18" data-name="Ellipse 18" cx="2" cy="2.5" rx="2" ry="2.5" transform="translate(-0.088 -0.122)" fill="#ffc84a"/>
          </g>
          <g id="Group_297" data-name="Group 297" transform="translate(54.764 99.543)">
            <ellipse id="Ellipse_19" data-name="Ellipse 19" cx="1.5" cy="2.5" rx="1.5" ry="2.5" transform="translate(0.236 -0.122)" fill="#ffc84a"/>
          </g>
          <g id="Group_298" data-name="Group 298" transform="translate(84.513 99.543)">
            <ellipse id="Ellipse_20" data-name="Ellipse 20" cx="2" cy="2.5" rx="2" ry="2.5" transform="translate(0.488 -0.122)" fill="#ffc84a"/>
          </g>
          <g id="Group_299" data-name="Group 299" transform="translate(46.65 99.543)">
            <ellipse id="Ellipse_21" data-name="Ellipse 21" cx="2" cy="2.5" rx="2" ry="2.5" transform="translate(0.35 -0.122)" fill="#ff8c51"/>
          </g>
          <g id="Group_300" data-name="Group 300" transform="translate(77.301 99.543)">
            <ellipse id="Ellipse_22" data-name="Ellipse 22" cx="2" cy="2.5" rx="2" ry="2.5" transform="translate(-0.301 -0.122)" fill="#ff8c51"/>
          </g>
          <g id="Group_301" data-name="Group 301" transform="translate(61.976 99.543)">
            <ellipse id="Ellipse_23" data-name="Ellipse 23" cx="2" cy="2.5" rx="2" ry="2.5" transform="translate(0.023 -0.122)" fill="#ff8c51"/>
          </g>
        </g>
      </g>
    </g>
  </g>
</svg>
