<svg xmlns="http://www.w3.org/2000/svg" width="36" height="36" viewBox="0 0 36 36">
  <g id="Group_731" data-name="Group 731" transform="translate(-1699 -118)">
    <circle id="Ellipse_29" data-name="Ellipse 29" cx="18" cy="18" r="18" transform="translate(1699 118)" fill="#734391"/>
    <path id="calendar" d="M1.286,16.715H4.179V13.822H1.286Zm3.536,0H8.036V13.822H4.822v2.893ZM1.286,13.179H4.179V9.965H1.286Zm3.536,0H8.036V9.965H4.822v3.215ZM1.286,9.322H4.179V6.429H1.286Zm7.393,7.393h3.215V13.822H8.679ZM4.822,9.322H8.036V6.429H4.822Zm7.715,7.393h2.893V13.822H12.536ZM8.679,13.179h3.215V9.965H8.679v3.215ZM5.143,4.5V1.607a.326.326,0,0,0-.322-.322H4.179a.326.326,0,0,0-.322.322V4.5a.326.326,0,0,0,.322.322h.643A.326.326,0,0,0,5.143,4.5Zm7.393,8.679h2.893V9.965H12.536v3.215ZM8.679,9.322h3.215V6.429H8.679Zm3.857,0h2.893V6.429H12.536ZM12.857,4.5V1.607a.326.326,0,0,0-.322-.322h-.643a.325.325,0,0,0-.321.322V4.5a.326.326,0,0,0,.322.322h.643a.326.326,0,0,0,.322-.322Zm3.857-.643V16.714A1.3,1.3,0,0,1,15.429,18H1.286a1.236,1.236,0,0,1-.9-.382,1.236,1.236,0,0,1-.382-.9V3.857a1.235,1.235,0,0,1,.382-.9,1.235,1.235,0,0,1,.9-.382H2.571V1.607A1.548,1.548,0,0,1,3.043.472,1.548,1.548,0,0,1,4.179,0h.643A1.548,1.548,0,0,1,5.957.472a1.548,1.548,0,0,1,.472,1.135v.965h3.857V1.607A1.548,1.548,0,0,1,10.758.472,1.548,1.548,0,0,1,11.893,0h.643a1.548,1.548,0,0,1,1.135.472,1.548,1.548,0,0,1,.472,1.135v.965h1.286a1.236,1.236,0,0,1,.9.382,1.235,1.235,0,0,1,.382.9Z" transform="translate(1709 127)" fill="#fff"/>
  </g>
</svg>
