<svg xmlns="http://www.w3.org/2000/svg" width="48" height="48" viewBox="0 0 48 48">
  <g id="Group_10957" data-name="Group 10957" transform="translate(-1391 -5984)">
    <g id="Rectangle_405" data-name="Rectangle 405" transform="translate(1391 5984)" fill="#2a2f4d" stroke="#a9acbe" stroke-width="1">
      <rect width="48" height="48" rx="5" stroke="none"/>
      <rect x="0.5" y="0.5" width="47" height="47" rx="4.5" fill="none"/>
    </g>
    <g id="pinterest-circular-logo-symbol" transform="translate(1401 5993.99)">
      <g id="Group_10951" data-name="Group 10951" transform="translate(0 0.01)">
        <path id="Path_1481" data-name="Path 1481" d="M21.028,1.888A13.694,13.694,0,0,0,14,.01,13.7,13.7,0,0,0,6.973,1.888a13.941,13.941,0,0,0-5.1,5.1A13.7,13.7,0,0,0,0,14.011a13.57,13.57,0,0,0,2.315,7.711,13.95,13.95,0,0,0,6.071,5.123,12.053,12.053,0,0,1,.237-3.226l1.8-7.62a4.862,4.862,0,0,1-.456-2.224,4.175,4.175,0,0,1,.784-2.589,2.33,2.33,0,0,1,1.914-1.04,1.709,1.709,0,0,1,1.4.6,2.311,2.311,0,0,1,.492,1.513,5.676,5.676,0,0,1-.21,1.376q-.21.811-.547,1.878t-.483,1.7a2.068,2.068,0,0,0,.419,1.9,2.228,2.228,0,0,0,1.787.793,3.666,3.666,0,0,0,3.2-2.169,10.4,10.4,0,0,0,1.249-5.269A5.17,5.17,0,0,0,18.44,8.6,5.909,5.909,0,0,0,14.147,7.1a6.637,6.637,0,0,0-6.891,6.708,4.148,4.148,0,0,0,.93,2.753.832.832,0,0,1,.2.783q-.037.11-.146.547c-.073.291-.122.48-.146.565q-.146.584-.693.365A4.113,4.113,0,0,1,5.269,16.8a7.288,7.288,0,0,1-.729-3.336,7.956,7.956,0,0,1,.392-2.443A8.33,8.33,0,0,1,6.153,8.659,9.6,9.6,0,0,1,8.14,6.645a9.336,9.336,0,0,1,2.817-1.4,11.715,11.715,0,0,1,3.573-.528,9.384,9.384,0,0,1,4.649,1.148,8.21,8.21,0,0,1,3.145,2.972,7.5,7.5,0,0,1,1.085,3.9,12.266,12.266,0,0,1-.948,4.922,8.084,8.084,0,0,1-2.68,3.436,6.567,6.567,0,0,1-3.938,1.249,4.319,4.319,0,0,1-2.078-.52,3.038,3.038,0,0,1-1.331-1.231q-.82,3.226-.984,3.846a11.222,11.222,0,0,1-1.422,2.99,14,14,0,0,0,11-1.294,13.942,13.942,0,0,0,5.1-5.1A13.7,13.7,0,0,0,28,14.009a13.7,13.7,0,0,0-1.878-7.028A13.948,13.948,0,0,0,21.028,1.888Z" transform="translate(0 -0.01)" fill="#7b7f95"/>
      </g>
    </g>
  </g>
</svg>
