<svg xmlns="http://www.w3.org/2000/svg" width="48" height="48" viewBox="0 0 48 48">
  <g id="Group_10954" data-name="Group 10954" transform="translate(-1391 -5926)">
    <g id="Rectangle_402" data-name="Rectangle 402" transform="translate(1391 5926)" fill="#2a2f4d" stroke="#a9acbe" stroke-width="1">
      <rect width="48" height="48" rx="5" stroke="none"/>
      <rect x="0.5" y="0.5" width="47" height="47" rx="4.5" fill="none"/>
    </g>
    <g id="twitter_1_" data-name="twitter (1)" transform="translate(1402 5891)">
      <g id="Group_10950" data-name="Group 10950" transform="translate(0 48)">
        <path id="Path_1477" data-name="Path 1477" d="M27.077,50.6a11.573,11.573,0,0,1-3.2.877,5.52,5.52,0,0,0,2.442-3.068,11.094,11.094,0,0,1-3.52,1.344,5.551,5.551,0,0,0-9.6,3.8,5.716,5.716,0,0,0,.129,1.266A15.712,15.712,0,0,1,1.885,49.012a5.552,5.552,0,0,0,1.706,7.419,5.482,5.482,0,0,1-2.508-.684v.061A5.577,5.577,0,0,0,5.53,61.263a5.54,5.54,0,0,1-1.455.183,4.908,4.908,0,0,1-1.051-.095,5.6,5.6,0,0,0,5.187,3.867,11.154,11.154,0,0,1-6.883,2.368A10.4,10.4,0,0,1,0,67.509,15.628,15.628,0,0,0,8.516,70a15.69,15.69,0,0,0,15.8-15.8c0-.245-.008-.482-.02-.718A11.074,11.074,0,0,0,27.077,50.6Z" transform="translate(0 -48)" fill="#7b7f95"/>
      </g>
    </g>
  </g>
</svg>
