<svg xmlns="http://www.w3.org/2000/svg" width="48" height="48" viewBox="0 0 48 48">
  <g id="Group_11473" data-name="Group 11473" transform="translate(-1509 -220)">
    <g id="Rectangle_403" data-name="Rectangle 403" transform="translate(1509 220)" fill="#2a2f4d" stroke="#a9acbe" stroke-width="1">
      <rect width="48" height="48" rx="5" stroke="none"/>
      <rect x="0.5" y="0.5" width="47" height="47" rx="4.5" fill="none"/>
    </g>
    <g id="instagram_1_" data-name="instagram (1)" transform="translate(1521 232)">
      <path id="Path_1478" data-name="Path 1478" d="M20.484,0H3.516A3.52,3.52,0,0,0,0,3.516V20.484A3.52,3.52,0,0,0,3.516,24H20.484A3.52,3.52,0,0,0,24,20.484V3.516A3.52,3.52,0,0,0,20.484,0ZM12.047,18.281a6.328,6.328,0,1,1,6.328-6.328A6.335,6.335,0,0,1,12.047,18.281Zm7.031-11.25a2.109,2.109,0,1,1,2.109-2.109A2.112,2.112,0,0,1,19.078,7.031Zm0,0" fill="#7b7f95"/>
      <path id="Path_1479" data-name="Path 1479" d="M392.7,90a.7.7,0,1,0,.7.7A.7.7,0,0,0,392.7,90Zm0,0" transform="translate(-373.625 -85.781)" fill="#7b7f95"/>
      <path id="Path_1480" data-name="Path 1480" d="M156.922,150a4.922,4.922,0,1,0,4.922,4.922A4.928,4.928,0,0,0,156.922,150Zm0,0" transform="translate(-144.875 -142.969)" fill="#7b7f95"/>
    </g>
  </g>
</svg>
