<svg xmlns="http://www.w3.org/2000/svg" width="31.5" height="31.5" viewBox="0 0 31.5 31.5"><defs><style>.a{fill:none;stroke:#000;stroke-miterlimit:10;stroke-width:2.25px;}</style></defs><g transform="translate(-2.25 -2.25)"><path d="M14.625,16.313a1.688,1.688,0,1,1-1.687-1.647A1.688,1.688,0,0,1,14.625,16.313Z"/><path d="M18,27a6.988,6.988,0,0,1-6.73-4.91.563.563,0,0,1,.55-.715H24.177a.563.563,0,0,1,.55.715A6.974,6.974,0,0,1,18,27Z"/><path d="M24.75,16.313a1.688,1.688,0,1,1-1.687-1.647A1.688,1.688,0,0,1,24.75,16.313Z"/><path class="a" d="M32.625,18A14.625,14.625,0,1,1,18,3.375,14.625,14.625,0,0,1,32.625,18Z"/></g></svg>