<svg xmlns="http://www.w3.org/2000/svg" width="36" height="36" viewBox="0 0 36 36"><defs><style>.a{fill:rgba(255,255,255,.5);stroke:#a9acbe}.b{stroke:none}.c{fill:none}</style></defs><g class="a"><rect class="b" width="36" height="36" rx="18"/><rect class="c" x=".5" y=".5" width="35" height="35" rx="17.5"/></g><path d="M18.4 25.435a.938.938 0 01-.618-.235c-.646-.565-1.27-1.1-1.819-1.565a33.835 33.835 0 01-3.976-3.728 5.955 5.955 0 01-1.587-3.898 5 5 0 011.269-3.416A4.3 4.3 0 0114.87 11.2a4.025 4.025 0 012.514.868 5.143 5.143 0 011.016 1.061 5.144 5.144 0 011.017-1.061 4.025 4.025 0 012.513-.868 4.3 4.3 0 013.2 1.393 5 5 0 011.27 3.416 5.955 5.955 0 01-1.587 3.9 33.832 33.832 0 01-3.972 3.728c-.551.469-1.175 1-1.823 1.568a.939.939 0 01-.618.23zm-3.53-13.298a3.376 3.376 0 00-2.512 1.091 4.068 4.068 0 00-1.021 2.781 5.011 5.011 0 001.371 3.3 33.3 33.3 0 003.859 3.613c.552.47 1.177 1 1.829 1.573.655-.57 1.282-1.1 1.835-1.576a33.305 33.305 0 003.858-3.613 5.011 5.011 0 001.371-3.3 4.068 4.068 0 00-1.021-2.78 3.375 3.375 0 00-2.509-1.089 3.108 3.108 0 00-1.941.672 4.548 4.548 0 00-1.081 1.252.592.592 0 01-1.016 0 4.544 4.544 0 00-1.082-1.252 3.108 3.108 0 00-1.94-.672zm0 0"/></svg>