<svg xmlns="http://www.w3.org/2000/svg" width="18" height="18" viewBox="0 0 18 18">
  <path id="help-buoy-sharp" d="M11.25,2.25a9,9,0,1,0,9,9A9,9,0,0,0,11.25,2.25Zm-2.571,9a2.571,2.571,0,1,1,2.571,2.571A2.571,2.571,0,0,1,8.679,11.25Zm9.532-2.5-3.469.213a4.213,4.213,0,0,0-1.2-1.2l.21-3.469a7.433,7.433,0,0,1,4.46,4.46ZM6.023,6.022A7.37,7.37,0,0,1,8.748,4.289L8.96,7.757a4.213,4.213,0,0,0-1.2,1.2l-3.469-.21A7.37,7.37,0,0,1,6.023,6.023Zm-1.733,7.73,3.469-.21a4.213,4.213,0,0,0,1.2,1.2l-.21,3.469a7.433,7.433,0,0,1-4.46-4.458Zm12.188,2.725a7.37,7.37,0,0,1-2.725,1.733l-.21-3.469a4.213,4.213,0,0,0,1.2-1.2l3.469.21A7.37,7.37,0,0,1,16.477,16.477Z" transform="translate(-2.25 -2.25)" fill="#2a2f4d"/>
</svg>
