<svg xmlns="http://www.w3.org/2000/svg" width="18.002" height="18" viewBox="0 0 18.002 18">
  <path id="ios-call" d="M21.972,18.6a15.134,15.134,0,0,0-3.158-2.113c-.946-.455-1.294-.445-1.963.037-.558.4-.918.778-1.56.637a9.31,9.31,0,0,1-3.135-2.319A9.234,9.234,0,0,1,9.835,11.7c-.136-.646.239-1,.637-1.56.483-.67.5-1.017.037-1.963A14.827,14.827,0,0,0,8.4,5.02c-.689-.689-.844-.539-1.223-.4a6.91,6.91,0,0,0-1.12.6,3.38,3.38,0,0,0-1.345,1.42c-.267.577-.577,1.65,1,4.452a24.836,24.836,0,0,0,4.367,5.825l0,0,0,0a24.933,24.933,0,0,0,5.825,4.367c2.8,1.575,3.876,1.265,4.452,1a3.319,3.319,0,0,0,1.42-1.345,7,7,0,0,0,.6-1.12c.136-.38.291-.535-.4-1.223Z" transform="translate(-4.49 -4.502)" fill="#fff"/>
</svg>
