<svg xmlns="http://www.w3.org/2000/svg" xmlns:xlink="http://www.w3.org/1999/xlink" width="245.479" height="242.055" viewBox="0 0 245.479 242.055">
  <defs>
    <linearGradient id="linear-gradient" x1="0.5" x2="0.5" y2="1" gradientUnits="objectBoundingBox">
      <stop offset="0" stop-color="#1f5ea5"/>
      <stop offset="1" stop-color="#252b4a"/>
      <stop offset="1" stop-color="#202540"/>
    </linearGradient>
  </defs>
  <g id="Group_11570" data-name="Group 11570" transform="translate(-867.108 -202.271)">
    <path id="Path_1754" data-name="Path 1754" d="M16969.793-13239.047c131.416-96.23,163.492,30.01,144.867,97.268S16838.381-13142.816,16969.793-13239.047Z" transform="translate(-3571.696 21374.916) rotate(-40)" fill="#ffd401" opacity="0.5"/>
    <path id="Path_1755" data-name="Path 1755" d="M37.189,34.89C168.6-61.34,200.682,64.9,182.055,132.159S-94.225,131.121,37.189,34.89Z" transform="translate(904.893 235.415) rotate(3)" fill="#ff0175" opacity="0.2"/>
    <g id="Group_11569" data-name="Group 11569" transform="translate(943.902 2.43) rotate(1)">
      <path id="Path_1748" data-name="Path 1748" d="M240.5,405.288s15.513-2.216,20.683-16.251,9.6-25.854,18.467-23.638,3.693,30.286,3.693,30.286,18.467-2.216,19.206,4.432c.612,5.5.21,26.707.054,33.839a14.617,14.617,0,0,1-2.547,8.081,10.656,10.656,0,0,1-10.8,4.617,86.237,86.237,0,0,0-12.356-.646,37.667,37.667,0,0,1-20.885-6h0l-15.513-.739Z" transform="translate(-198.558 -94.688)" fill="#f2f2f2"/>
      <rect id="Rectangle_606" data-name="Rectangle 606" width="31.764" height="53.925" transform="translate(18.303 300.259)" fill="url(#linear-gradient)"/>
      <path id="Path_1749" data-name="Path 1749" d="M270.263,375.136a11.045,11.045,0,0,1-3.152-.453l.211-.708a10.461,10.461,0,0,0,13.262-8.072l.726.138a11.167,11.167,0,0,1-11.046,9.094Z" transform="translate(-198.558 -94.688)" fill="#3f3d56"/>
    </g>
  </g>
</svg>
