<svg xmlns="http://www.w3.org/2000/svg" width="60" height="60" viewBox="0 0 60 60">
  <g id="Group_10962" data-name="Group 10962" transform="translate(-1040 -389)">
    <circle id="Ellipse_8" data-name="Ellipse 8" cx="30" cy="30" r="30" transform="translate(1040 389)" fill="#2a2f4d"/>
    <g id="megaphone" transform="matrix(0.966, -0.259, 0.259, 0.966, 1049.6, 411.907)">
      <g id="Group_10961" data-name="Group 10961" transform="translate(0)">
        <g id="Group_10960" data-name="Group 10960" transform="translate(0 0)">
          <path id="Path_1486" data-name="Path 1486" d="M0,3.007A3.172,3.172,0,0,0,2.06,6.015V.288C2.06.206,2.1.082,2.1,0A3.213,3.213,0,0,0,0,3.007Z" transform="translate(0 8.693)" fill="#ffd401"/>
          <path id="Path_1487" data-name="Path 1487" d="M5.4,0H0L2.019,7.333a2.554,2.554,0,0,0,2.472,1.9,2.6,2.6,0,0,0,2.1-1.03A2.389,2.389,0,0,0,7,5.974Z" transform="translate(5.85 18.787)" fill="#ffd401"/>
          <path id="Path_1488" data-name="Path 1488" d="M0,.041H.041V0C.041.041.041.041,0,.041Z" transform="translate(2.101 8.611)" fill="#ffd401"/>
          <path id="Path_1489" data-name="Path 1489" d="M.33,0H0V7.416H.33A3.708,3.708,0,0,0,.33,0Z" transform="translate(31.311 8.075)" fill="#ffd401"/>
          <path id="Path_1490" data-name="Path 1490" d="M0,2.554V8.4a2.8,2.8,0,0,0,2.8,2.719h7.5V0H2.8A2.679,2.679,0,0,0,0,2.554Z" transform="translate(3.296 6.427)" fill="#ffd401"/>
          <path id="Path_1491" data-name="Path 1491" d="M0,17.715l15.243,6.1V0L0,6.1Z" transform="translate(14.832)" fill="#ffd401"/>
        </g>
      </g>
    </g>
    <path id="close" d="M11.517,11.977a.868.868,0,0,1-.262.637L9.98,13.889a.905.905,0,0,1-1.275,0L5.95,11.133,3.2,13.888a.868.868,0,0,1-.637.262.868.868,0,0,1-.637-.262L.646,12.614a.905.905,0,0,1,0-1.275L3.4,8.584.646,5.829a.905.905,0,0,1,0-1.275L1.921,3.28a.868.868,0,0,1,.637-.262A.868.868,0,0,1,3.2,3.28L5.95,6.035,8.705,3.28a.905.905,0,0,1,1.275,0l1.275,1.275a.905.905,0,0,1,0,1.275L8.5,8.584l2.755,2.755a.868.868,0,0,1,.262.637Z" transform="translate(1069.016 408.782)" fill="#2a2f4d"/>
  </g>
</svg>
