<svg xmlns="http://www.w3.org/2000/svg" width="36" height="34.665" viewBox="0 0 36 34.665"><defs><style>.a{fill:#2a2f4d;}</style></defs><g transform="translate(0 -9.496)"><g transform="translate(0 9.496)"><path class="a" d="M32.847,30.6l-.046-.025c.036-.418.055-.841.055-1.269A14.875,14.875,0,0,0,24.3,15.853c0-.018,0-.036,0-.054a6.3,6.3,0,1,0-12.605,0c0,.018,0,.036,0,.054A14.875,14.875,0,0,0,3.143,29.3c0,.427.019.85.055,1.269l-.046.026a6.3,6.3,0,1,0,6.3,10.917l.05-.031a14.824,14.824,0,0,0,16.99,0l.05.03a6.3,6.3,0,1,0,6.3-10.917ZM18,12.2a3.6,3.6,0,1,1-3.6,3.6A3.606,3.606,0,0,1,18,12.2ZM9.782,36.989a3.6,3.6,0,0,1-3.473,2.67A3.6,3.6,0,0,1,6.3,32.455h0a3.617,3.617,0,0,1,3.125,1.8A3.578,3.578,0,0,1,9.782,36.989Zm14.691,2.6a12.13,12.13,0,0,1-12.948,0A6.3,6.3,0,0,0,6.3,29.753h0c-.148,0-.3.006-.443.016-.006-.154-.01-.309-.01-.465a12.166,12.166,0,0,1,6.486-10.749,6.3,6.3,0,0,0,11.338,0A12.166,12.166,0,0,1,30.155,29.3c0,.156,0,.311-.01.465-.148-.01-.3-.016-.443-.016h0a6.3,6.3,0,0,0-5.228,9.834Zm8.341-1.729a3.6,3.6,0,1,1-3.113-5.4h0a3.6,3.6,0,0,1,3.113,5.4Z" transform="translate(0 -9.496)"/></g></g></svg>