<svg xmlns="http://www.w3.org/2000/svg" width="25.844" height="22.636" viewBox="0 0 25.844 22.636"><path d="M.815,39.141h1.74A9.3,9.3,0,0,1,4.79,36.153L4.816,32.3A.816.816,0,0,1,6,31.575l4.483,2.268,6.11-.024a9.254,9.254,0,0,1,3.65,17.757v1.731a.815.815,0,0,1-.815.815h-3.5a.815.815,0,0,1-.8-.658L14.9,52.325H11.615l-.223,1.139a.815.815,0,0,1-.8.658h-3.5a.815.815,0,0,1-.815-.815V51.066A9.264,9.264,0,0,1,2.554,47H.815A.815.815,0,0,1,0,46.188V39.956a.815.815,0,0,1,.815-.815ZM11.65,38.1h3.708a.815.815,0,1,0,0-1.63H11.65a.815.815,0,1,0,0,1.63Zm-5.059,2.25a.849.849,0,1,0-.849-.849A.849.849,0,0,0,6.591,40.347Z" transform="translate(0 -31.486)" fill="#e7e9f3"/></svg>