<svg xmlns="http://www.w3.org/2000/svg" xmlns:xlink="http://www.w3.org/1999/xlink" width="113.5" height="99.412" viewBox="0 0 113.5 99.412"><defs><linearGradient id="a" x1="0.5" x2="1" y2="0.571" gradientUnits="objectBoundingBox"><stop offset="0" stop-color="#ff0175"/><stop offset="1" stop-color="#fb9521"/></linearGradient></defs><path d="M3.579,65.1h7.64a40.85,40.85,0,0,1,9.819-13.124l.112-16.934a3.582,3.582,0,0,1,5.2-3.17l19.687,9.96,26.832-.1A40.64,40.64,0,0,1,88.9,119.716v7.6a3.58,3.58,0,0,1-3.58,3.58H69.933a3.58,3.58,0,0,1-3.513-2.891l-.981-5H51.008l-.981,5a3.58,3.58,0,0,1-3.513,2.891H31.131a3.58,3.58,0,0,1-3.58-3.58v-9.843A40.687,40.687,0,0,1,11.219,99.632H3.58A3.58,3.58,0,0,1,0,96.052V68.683A3.579,3.579,0,0,1,3.579,65.1Zm47.584-4.585H67.446a3.58,3.58,0,1,0,0-7.159H51.163a3.58,3.58,0,1,0,0,7.159ZM28.948,70.4a3.727,3.727,0,1,0-3.727-3.727A3.727,3.727,0,0,0,28.948,70.4Z" transform="translate(0 -31.486)" fill="url(#a)"/></svg>