<svg xmlns="http://www.w3.org/2000/svg" width="40" height="40" viewBox="0 0 40 40">
  <g id="Group_478" data-name="Group 478" transform="translate(-596 -2816)">
    <rect id="Rectangle_120" data-name="Rectangle 120" width="40" height="40" rx="3" transform="translate(596 2816)" fill="#c61d26"/>
    <g id="pinterest" transform="translate(557.996 2824)">
      <g id="Group_475" data-name="Group 475" transform="translate(48.004)">
        <path id="Path_509" data-name="Path 509" d="M57.887,0C51.435,0,48,4.134,48,8.642c0,2.091,1.168,4.7,3.038,5.525.284.128.438.074.5-.19.056-.2.3-1.164.421-1.618a.416.416,0,0,0-.1-.409A5.361,5.361,0,0,1,50.751,8.7c0-3.144,2.5-6.2,6.753-6.2,3.678,0,6.251,2.389,6.251,5.807,0,3.862-2.044,6.534-4.7,6.534a2.1,2.1,0,0,1-2.217-2.581c.419-1.7,1.242-3.527,1.242-4.752A1.825,1.825,0,0,0,56.192,5.5c-1.5,0-2.71,1.482-2.71,3.471a4.948,4.948,0,0,0,.447,2.117s-1.48,5.979-1.755,7.1a15.878,15.878,0,0,0,.109,5.216.155.155,0,0,0,.282.072A18.537,18.537,0,0,0,55,18.882c.182-.672.931-3.4.931-3.4a4.067,4.067,0,0,0,3.431,1.636c4.508,0,7.765-3.962,7.765-8.879C67.113,3.527,63.079,0,57.887,0Z" transform="translate(-48.004)" fill="#fff"/>
      </g>
    </g>
  </g>
</svg>
