<svg xmlns="http://www.w3.org/2000/svg" width="18" height="18" viewBox="0 0 18 18">
  <g id="plus-circle-line" transform="translate(-2 -2)">
    <path id="Path_497" data-name="Path 497" d="M16.193,12.3H13.148V9.255a.425.425,0,1,0-.849,0V12.3H9.255a.425.425,0,1,0,0,.849H12.3v3.044a.425.425,0,1,0,.849,0V13.148h3.044a.425.425,0,1,0,0-.849Z" transform="translate(-1.724 -1.724)" fill="#2a2f4d"/>
    <path id="Path_498" data-name="Path 498" d="M11,2a9,9,0,1,0,9,9A9,9,0,0,0,11,2Zm0,16.875A7.875,7.875,0,1,1,18.875,11,7.875,7.875,0,0,1,11,18.875Z" fill="#2a2f4d"/>
  </g>
</svg>
