<svg xmlns="http://www.w3.org/2000/svg" width="18" height="18" viewBox="0 0 18 18">
  <path id="rupee-solid" d="M11,2a9,9,0,1,0,9,9A9,9,0,0,0,11,2Zm3.308,5.063H15.5a.563.563,0,0,1,0,1.125h-.979v.107a3.426,3.426,0,0,1-3.375,3.488H10.021l3.836,4.534a.7.7,0,1,1-1.074.911l-4.8-5.7a.7.7,0,0,1,.563-1.159h2.649a2.019,2.019,0,0,0,1.958-2.076V8.182H8.086a.563.563,0,1,1,0-1.125h4.68A1.918,1.918,0,0,0,11.2,6.213H8.047a.7.7,0,0,1,0-1.406H15.5a.563.563,0,0,1,0,1.125H13.632a3.5,3.5,0,0,1,.675,1.131Z" transform="translate(-2 -2)" fill="#2a2f4d"/>
</svg>
