<svg xmlns="http://www.w3.org/2000/svg" width="14.667" height="16" viewBox="0 0 14.667 16">
  <g id="share" transform="translate(0 0)">
    <path id="Path_1496" data-name="Path 1496" d="M319,18.167A2.167,2.167,0,1,1,316.835,16,2.167,2.167,0,0,1,319,18.167Zm0,0" transform="translate(-304.835 -15.5)" fill="#fff"/>
    <path id="Path_1497" data-name="Path 1497" d="M301.335,5.333A2.667,2.667,0,1,1,304,2.667,2.669,2.669,0,0,1,301.335,5.333Zm0-4.333A1.667,1.667,0,1,0,303,2.667,1.669,1.669,0,0,0,301.335,1Zm0,0" transform="translate(-289.335)" fill="#fff"/>
    <path id="Path_1498" data-name="Path 1498" d="M319,359.5a2.167,2.167,0,1,1-2.167-2.167A2.167,2.167,0,0,1,319,359.5Zm0,0" transform="translate(-304.835 -346.165)" fill="#fff"/>
    <path id="Path_1499" data-name="Path 1499" d="M301.335,346.665A2.667,2.667,0,1,1,304,344,2.669,2.669,0,0,1,301.335,346.665Zm0-4.333A1.667,1.667,0,1,0,303,344,1.669,1.669,0,0,0,301.335,342.332Zm0,0" transform="translate(-289.335 -330.665)" fill="#fff"/>
    <path id="Path_1500" data-name="Path 1500" d="M20.333,188.835a2.167,2.167,0,1,1-2.167-2.167A2.167,2.167,0,0,1,20.333,188.835Zm0,0" transform="translate(-15.5 -180.835)" fill="#fff"/>
    <path id="Path_1501" data-name="Path 1501" d="M2.667,176a2.667,2.667,0,1,1,2.667-2.667A2.669,2.669,0,0,1,2.667,176Zm0-4.333a1.667,1.667,0,1,0,1.667,1.667,1.668,1.668,0,0,0-1.667-1.667Zm0,0" transform="translate(0 -165.335)" fill="#fff"/>
    <path id="Path_1502" data-name="Path 1502" d="M115.016,95.075a.667.667,0,0,1-.331-1.246l6.186-3.527a.667.667,0,1,1,.66,1.159l-6.186,3.527a.662.662,0,0,1-.329.087Zm0,0" transform="translate(-110.775 -87.395)" fill="#fff"/>
    <path id="Path_1503" data-name="Path 1503" d="M121.223,271.079a.662.662,0,0,1-.329-.087l-6.186-3.527a.667.667,0,0,1,.66-1.159l6.186,3.527a.667.667,0,0,1-.331,1.246Zm0,0" transform="translate(-110.797 -257.899)" fill="#fff"/>
  </g>
</svg>
