<svg xmlns="http://www.w3.org/2000/svg" width="22.859" height="20" viewBox="0 0 22.859 20">
  <g id="Group_11372" data-name="Group 11372" transform="translate(-34 -159)">
    <g id="gallery" transform="translate(34.007 132.723)">
      <g id="Group_10813" data-name="Group 10813" transform="translate(-0.007 26.277)">
        <g id="Group_10812" data-name="Group 10812" transform="translate(0 0)">
          <path id="Path_1432" data-name="Path 1432" d="M12.086,242.562a3.888,3.888,0,0,1-2.133-.711L6.4,239.007c-.525-.491-.852-.438-1.422,0L0,242.562V244.7c-.034.608.1,1.388.711,1.422.031,0,.68,0,.711,0H17.775A1.594,1.594,0,0,0,19.2,244.7v-5.689l-5.689,3.555C13.065,242.829,12.6,242.569,12.086,242.562Z" transform="translate(0.007 -226.119)" fill="#2a2f4d"/>
          <circle id="Ellipse_493" data-name="Ellipse 493" cx="1.422" cy="1.422" r="1.422" transform="translate(9.96 7.911)" fill="#2a2f4d"/>
          <path id="Path_1433" data-name="Path 1433" d="M76,28.5c-.2-.266-1.093.025-1.422,0L58.225,26.366c-.325-.027-.443-.186-.711,0-.238.207-.651.4-.711.711v2.844H71.024c1.4.032,2.8.739,2.844,2.133V43.432c0-.061-.122-.589,0-.711.254-.2.714-.389.711-.711L76,29.922C76.034,29.6,76.21,28.746,76,28.5Z" transform="translate(-53.242 -26.277)" fill="#2a2f4d"/>
          <path id="Path_1434" data-name="Path 1434" d="M17.8,106.348H1.449c-.674,0-1.422.038-1.422.711V116.3l4.266-2.844a1.976,1.976,0,0,1,2.844,0l3.555,2.844a2.112,2.112,0,0,0,2.133,0l6.4-3.555v-5.689C19.18,106.34,18.524,106.377,17.8,106.348Zm-6.4,6.4a1.887,1.887,0,0,1-2.133-2.133c0-1.42.713-2.844,2.133-2.844a3.062,3.062,0,0,1,2.844,2.844C14.249,112.034,12.825,112.747,11.4,112.747Z" transform="translate(-0.023 -101.281)" fill="#2a2f4d"/>
        </g>
      </g>
    </g>
  </g>
</svg>
