<svg xmlns="http://www.w3.org/2000/svg" width="20" height="11.921" viewBox="0 0 20 11.921">
  <g id="coupon" transform="translate(0 -102.708)">
    <path id="Path_1563" data-name="Path 1563" d="M5.976,102.708H.629a.629.629,0,0,0-.629.629v3.19a.629.629,0,0,0,.629.629,1.512,1.512,0,1,1,0,3.023.629.629,0,0,0-.629.629V114a.629.629,0,0,0,.629.629H5.976Z" fill="#2a2f4d"/>
    <path id="Path_1564" data-name="Path 1564" d="M196.074,107.157a.629.629,0,0,0,.629-.629v-3.19a.629.629,0,0,0-.629-.629H183.938v11.921h12.136A.629.629,0,0,0,196.7,114v-3.19a.629.629,0,0,0-.629-.629,1.512,1.512,0,0,1,0-3.023Z" transform="translate(-176.703)" fill="#2a2f4d"/>
  </g>
</svg>
