<svg xmlns="http://www.w3.org/2000/svg" width="20" height="20" viewBox="0 0 20 20">
  <g id="Group_11372" data-name="Group 11372" transform="translate(-34 -159)">
    <g id="brain" transform="translate(34 159)">
      <path id="Path_1542" data-name="Path 1542" d="M7.266,0A3.717,3.717,0,0,0,3.8,2.386,4.848,4.848,0,0,1,7.164,3.813l.01.01a.549.549,0,0,1-.558.905,1.313,1.313,0,0,1-.473-.266,3.7,3.7,0,0,0-2.585-.9v0A3.711,3.711,0,0,0,1.2,10a3.711,3.711,0,0,0,2.355,6.442A3.715,3.715,0,0,0,7.266,20h.1a3.259,3.259,0,0,0,2.044-.792V.793A3.258,3.258,0,0,0,7.37,0h-.1Zm0,0" fill="#2a2f4d"/>
      <path id="Path_1543" data-name="Path 1543" d="M279.212,10a3.711,3.711,0,0,0-2.355-6.442A3.716,3.716,0,0,0,273.149,0h-.1A3.259,3.259,0,0,0,271,.793V19.207a3.259,3.259,0,0,0,2.044.791h.1a3.717,3.717,0,0,0,3.466-2.386,4.848,4.848,0,0,1-3.364-1.427l-.01-.01a.549.549,0,0,1,.558-.905,1.312,1.312,0,0,1,.473.266,3.7,3.7,0,0,0,2.585.9v0A3.711,3.711,0,0,0,279.212,10Zm0,0" transform="translate(-260.414)" fill="#2a2f4d"/>
    </g>
  </g>
</svg>
