<svg xmlns="http://www.w3.org/2000/svg" width="20" height="15.234" viewBox="0 0 20 15.234">
  <g id="Group_11372" data-name="Group 11372" transform="translate(-34 -162)">
    <g id="megaphone_1_" data-name="megaphone (1)" transform="translate(34 101)">
      <path id="Path_1544" data-name="Path 1544" d="M422.05,138.014a.586.586,0,0,1,.262-.786l2.344-1.172a.586.586,0,1,1,.524,1.048l-2.344,1.172A.586.586,0,0,1,422.05,138.014Z" transform="translate(-405.504 -72.065)" fill="#2a2f4d"/>
      <path id="Path_1545" data-name="Path 1545" d="M424.656,288.291l-2.344-1.172a.586.586,0,1,1,.524-1.048l2.344,1.172a.586.586,0,1,1-.524,1.048Z" transform="translate(-405.504 -216.22)" fill="#2a2f4d"/>
      <path id="Path_1546" data-name="Path 1546" d="M424.924,227.166H422.58a.586.586,0,0,1,0-1.172h2.344a.586.586,0,0,1,0,1.172Z" transform="translate(-405.51 -158.549)" fill="#2a2f4d"/>
      <path id="Path_1547" data-name="Path 1547" d="M187.7,61a.586.586,0,0,0-.586.586v.837A17.168,17.168,0,0,1,180,64.957v6.148a17.168,17.168,0,0,1,7.109,2.535v.837a.586.586,0,0,0,1.172,0V61.586A.586.586,0,0,0,187.7,61Z" transform="translate(-172.969)" fill="#2a2f4d"/>
      <path id="Path_1548" data-name="Path 1548" d="M33.531,335.922a3.969,3.969,0,0,1-.647-3.116l-2.894-.322a3.729,3.729,0,0,1-.631-.13,9.015,9.015,0,0,0-.354,3.393c.009.235.018.455.018.656a.586.586,0,0,0,.586.586h3.516a.586.586,0,0,0,.524-.848Z" transform="translate(-27.852 -260.754)" fill="#2a2f4d"/>
      <path id="Path_1549" data-name="Path 1549" d="M0,168.833a2.547,2.547,0,0,0,2.268,2.534l3.591.4V165.9l-3.591.4A2.547,2.547,0,0,0,0,168.833Z" transform="translate(0 -100.801)" fill="#2a2f4d"/>
    </g>
  </g>
</svg>
