<svg xmlns="http://www.w3.org/2000/svg" width="14" height="13.413" viewBox="0 0 14 13.413"><defs><style>.a{fill:#f80;}</style></defs><path class="a" d="M13.7,7.125a1,1,0,0,0-.557-1.713L9.749,4.92a.443.443,0,0,1-.334-.242L7.9,1.607a1,1,0,0,0-1.8,0L4.583,4.678a.443.443,0,0,1-.334.242L.86,5.413A1,1,0,0,0,.3,7.126L2.756,9.516a.444.444,0,0,1,.128.392L2.3,13.285a.983.983,0,0,0,.219.814,1.015,1.015,0,0,0,1.238.244l3.032-1.594a.454.454,0,0,1,.413,0l3.032,1.594a.994.994,0,0,0,.467.117,1.007,1.007,0,0,0,.77-.361.983.983,0,0,0,.219-.814l-.579-3.376a.444.444,0,0,1,.128-.392Z" transform="translate(0.001 -1.047)"/></svg>