<svg xmlns="http://www.w3.org/2000/svg" width="55.873" height="53.298" viewBox="0 0 55.873 53.298"><g transform="translate(0 0)"><path d="M55.792,32.034a1.636,1.636,0,0,0-1.321-1.114L37.15,28.4,29.4,12.707a1.637,1.637,0,0,0-2.936,0L18.722,28.4,1.4,30.92a1.637,1.637,0,0,0-.907,2.792L13.027,45.929,10.069,63.18a1.637,1.637,0,0,0,2.375,1.726L27.936,56.76l15.492,8.145A1.637,1.637,0,0,0,45.8,63.18L42.844,45.929,55.378,33.712A1.636,1.636,0,0,0,55.792,32.034Z" transform="translate(0 -11.795)" fill="#fed42d"/><path d="M283.857,32.034a1.636,1.636,0,0,0-1.321-1.114L265.215,28.4l-7.746-15.7A1.637,1.637,0,0,0,256,11.8V56.76l15.492,8.145a1.637,1.637,0,0,0,2.375-1.725l-2.959-17.251,12.534-12.217A1.637,1.637,0,0,0,283.857,32.034Z" transform="translate(-228.065 -11.795)" fill="#fcbf29"/></g></svg>