<svg xmlns="http://www.w3.org/2000/svg" width="18" height="17.167" viewBox="0 0 18 17.167"><path d="M18,6.652a.781.781,0,0,1-.281.519L13.792,11l.93,5.408a1.607,1.607,0,0,1,.011.216.638.638,0,0,1-.113.384.382.382,0,0,1-.33.157.873.873,0,0,1-.432-.13L9,14.484,4.143,17.037a.918.918,0,0,1-.432.13.393.393,0,0,1-.34-.157.64.64,0,0,1-.114-.384,1.768,1.768,0,0,1,.021-.216L4.208,11,.27,7.172A.824.824,0,0,1,0,6.652q0-.4.606-.5l5.43-.789L8.47.443Q8.675,0,9,0t.53.443l2.434,4.922,5.43.789q.606.1.606.5Z" fill="#fff"/></svg>