<svg xmlns="http://www.w3.org/2000/svg" width="30.993" height="31" viewBox="0 0 30.993 31">
  <g id="teenager" transform="translate(0 0.005)">
    <g id="Group_267" data-name="Group 267" transform="translate(2.583 -0.005)">
      <path id="Path_434" data-name="Path 434" d="M14.927,30.995c-5.478,0-8.461-3.6-10.868-7.491-.037-.063-.638-1.117-.9-1.69A13.815,13.815,0,0,1,2,16.256V10.317C2,4.616,6.379,3.5,7.918,3.282,8.243,2.227,9.564.136,14.91,0A14.168,14.168,0,0,1,25.074,3.583a9.159,9.159,0,0,1,2.778,6.71v5.939a13.931,13.931,0,0,1-1.158,5.561c-.293.644-.975,1.794-1,1.843-2.272,3.568-5.153,7.36-10.762,7.36Zm.378-29.707c-.121,0-.241,0-.363.005C9.261,1.434,9.1,3.851,9.1,3.876a.648.648,0,0,1-.631.646,5.345,5.345,0,0,0-5.18,5.8v5.939a12.518,12.518,0,0,0,1.051,5.033c.23.511.819,1.544.825,1.555,2.543,4.11,5.182,6.86,9.759,6.86,4.955,0,7.491-3.332,9.663-6.746s.666-1.121.923-1.689a12.63,12.63,0,0,0,1.047-5.036V10.294a7.787,7.787,0,0,0-2.389-5.785,12.991,12.991,0,0,0-8.867-3.221Z" transform="translate(-2 0.005)"/>
    </g>
    <g id="Group_268" data-name="Group 268" transform="translate(3.138 7.13)">
      <path id="Path_435" data-name="Path 435" d="M3.076,19.067a.672.672,0,0,1-.194-.03.646.646,0,0,1-.422-.81l2.04-6.47a.652.652,0,0,1,.363-.4c.041-.018,4.114-1.8,4.114-5.19A.645.645,0,0,1,9.5,5.534a.636.636,0,0,1,.723.391c.093.23,2.181,5.24,7.24,5.946a8.272,8.272,0,0,1-.727-4.541.646.646,0,0,1,.522-.533.657.657,0,0,1,.677.315c.668,1.165,2.8,4.193,4.6,4.193.469,0,.662-.009.864-.018.23-.01.469-.022,1.086-.022a.648.648,0,0,1,.617.455l2.027,6.509a.646.646,0,1,1-1.233.384l-1.885-6.053c-.258,0-.407.012-.553.018-.216.01-.424.019-.923.019-1.745,0-3.377-1.6-4.453-2.973a6.032,6.032,0,0,0,1.094,2.583.646.646,0,0,1-.515,1.036,10.449,10.449,0,0,1-8.73-5.168,8.7,8.7,0,0,1-4.287,4.342l-1.954,6.2a.646.646,0,0,1-.616.452Z" transform="translate(-2.43 -5.52)"/>
      <rect id="Rectangle_74" data-name="Rectangle 74" width="2" height="2" transform="translate(6.256 8.165)"/>
      <rect id="Rectangle_75" data-name="Rectangle 75" width="2" height="2" transform="translate(16.462 8.165)"/>
    </g>
    <g id="Group_269" data-name="Group 269" transform="translate(11.669 21.955)">
      <path id="Path_436" data-name="Path 436" d="M12.877,19.615A5.128,5.128,0,0,1,9.225,18.1a.646.646,0,1,1,.913-.913,3.969,3.969,0,0,0,5.479,0,.646.646,0,0,1,.913.913A5.131,5.131,0,0,1,12.877,19.615Z" transform="translate(-9.036 -17)"/>
    </g>
    <g id="Group_270" data-name="Group 270" transform="translate(26.578 14.283)">
      <path id="Path_437" data-name="Path 437" d="M21.768,17.517a3.115,3.115,0,0,1-.678-.08.645.645,0,1,1,.272-1.262,2.012,2.012,0,0,0,.405.049,1.937,1.937,0,0,0,.014-3.874.646.646,0,1,1,.023-1.291,3.229,3.229,0,0,1-.037,6.458Z" transform="translate(-20.581 -11.059)"/>
    </g>
    <g id="Group_271" data-name="Group 271" transform="translate(0 14.284)">
      <path id="Path_438" data-name="Path 438" d="M3.228,17.517a3.228,3.228,0,1,1,0-6.457.646.646,0,0,1,0,1.291,1.937,1.937,0,0,0,0,3.874,2.068,2.068,0,0,0,.42-.049.645.645,0,1,1,.272,1.262A3.261,3.261,0,0,1,3.228,17.517Z" transform="translate(0 -11.06)"/>
    </g>
  </g>
</svg>
