<svg xmlns="http://www.w3.org/2000/svg" width="18" height="18" viewBox="0 0 18 18">
  <g id="user-avatar-filled-alt" transform="translate(-2.25 -2.25)">
    <path id="Path_499" data-name="Path 499" d="M11.25,2.25a9,9,0,1,0,9,9A9,9,0,0,0,11.25,2.25Zm5.143,14.734v-.391a3.349,3.349,0,0,0-3.214-3.414H9.321a3.343,3.343,0,0,0-3.208,3.414c0,.007-.006.014-.006.021v.376a7.718,7.718,0,1,1,10.286-.006Z" fill="#2a2f4d"/>
    <path id="Path_500" data-name="Path 500" d="M15.589,7.875A3.214,3.214,0,1,0,18.8,11.089,3.214,3.214,0,0,0,15.589,7.875Z" transform="translate(-4.339 -2.411)" fill="#2a2f4d"/>
  </g>
</svg>
