<svg xmlns="http://www.w3.org/2000/svg" width="28" height="28" viewBox="0 0 28 28">
  <g id="Group_10989" data-name="Group 10989" transform="translate(-646 -2816)">
    <rect id="Rectangle_121" data-name="Rectangle 121" width="28" height="28" rx="2" transform="translate(646 2816)" fill="#19bf39"/>
    <path id="whatsapp" d="M7,0H7a7,7,0,0,0-5.67,11.1l-.87,2.6,2.69-.86A7,7,0,1,0,7,0Zm4.073,9.885a1.975,1.975,0,0,1-1.374.988c-.366.078-.84.14-2.45-.527a8.769,8.769,0,0,1-3.485-3.08,4,4,0,0,1-.831-2.109,2.234,2.234,0,0,1,.715-1.7A1.017,1.017,0,0,1,4.363,3.2c.087,0,.164,0,.234.008.206.008.309.021.445.346.169.407.58,1.411.63,1.515a.42.42,0,0,1,.03.379,1.21,1.21,0,0,1-.227.321c-.1.119-.2.21-.3.338-.095.111-.2.23-.083.435A6.213,6.213,0,0,0,6.225,7.954,5.146,5.146,0,0,0,7.866,8.966a.442.442,0,0,0,.493-.078,8.47,8.47,0,0,0,.547-.724.391.391,0,0,1,.5-.152c.189.066,1.19.56,1.4.662s.342.152.391.239a1.743,1.743,0,0,1-.121.972Z" transform="translate(653.003 2823)" fill="#fff"/>
  </g>
</svg>
